<svg version="1.1" id="Layer_1" xmlns="http://www.w3.org/2000/svg" xmlns:xlink="http://www.w3.org/1999/xlink" x="0px" y="0px"
	 viewBox="0 0 885.36 1598.4" style="width:885.36px;" xml:space="preserve">
<style type="text/css">
	.st0{fill:#FFFFFF;stroke:#000000;stroke-miterlimit:10;}
	.st1{font-family:'MyriadPro-Regular';}
	.st2{font-size:16.9317px;}
	.st3{fill:#403F98;}
	.st0:hover{fill:#7ec3b0;} 
</style>
<g class="53">
	<a xlink:href="#53" class="53">
		<rect x="95.04" y="57.6" class="53 st0" width="145.44" height="65.52"/>
		<text transform="matrix(1 0 0 1 103.1768 75.1323)" class="53 size st1 st2">12x5(60)</text>
		<text transform="matrix(1 0 0 1 103.1768 99.1323)" class="53 info st1 st2">info (Full width)</text>
		<text transform="matrix(1 0 0 1 223.8281 115.9904)" class="53 id st1 st2">53</text>
	</a>
</g>
<a xlink:href="#" ><rect x="646.56" y="57.6" class="st0" width="156.24" height="65.52"/></a>
<a xlink:href="#" ><rect x="658.8" y="1368" class="st0" width="169.92" height="182.16"/></a>
<a xlink:href="#" ><rect x="69.59" y="1368" class="st0" width="169.92" height="182.16"/></a>
<text transform="matrix(1 0 0 1 653.154 75.1324)" class="st1 st2">12x5(60)</text>
<text transform="matrix(1 0 0 1 773.2426 115.9906)" class="st1 st2">50</text>
<text transform="matrix(1 0 0 1 665.7323 1392.4805)" class="st1 st2">13x14(182)</text>
<g>
	<text transform="matrix(1 0 0 1 722.5576 1453.3486)">text</text>
	<text transform="matrix(1 0 0 1 722.5576 1453.3486)"><tspan x="0" y="0" class="st3 st1 st2">Yale /</tspan><tspan x="0" y="20.32" class="st3 st1 st2">Enox</tspan></text>
</g>
<text transform="matrix(1 0 0 1 801.9259 1545.6361)" class="st1 st2">12</text>
<text transform="matrix(1 0 0 1 76.5263 1384.8004)" class="st1 st2">13x14(182)</text>
<g>
	<text transform="matrix(1 0 0 1 129.3368 1453.3483)"><tspan x="0" y="0" class="st3 st1 st2">Olive /</tspan><tspan x="-11.4" y="20.32" class="st3 st1 st2">Evershine</tspan></text>
</g>
<text transform="matrix(1 0 0 1 212.72 1545.6361)" class="st1 st2">09</text>
</svg>
