<svg width="678" height="789" fill="none" xmlns="http://www.w3.org/2000/svg"><path d="M40 42a2 2 0 0 1 2-2h594a2 2 0 0 1 2 2v705a2 2 0 0 1-2 2H42a2 2 0 0 1-2-2V42Z" fill="#fff"/><path stroke="#000" d="M347.835 439.97h109v59h-109z"/><path d="M440.421 493.286c-.796 0-1.504-.137-2.126-.41-.618-.277-1.106-.657-1.464-1.14a2.864 2.864 0 0 1-.549-1.683h2.322c.015.266.102.5.261.703.164.199.38.353.65.463.27.11.574.165.911.165.352 0 .662-.062.932-.186a1.53 1.53 0 0 0 .634-.517 1.3 1.3 0 0 0 .229-.761c0-.292-.082-.549-.245-.773a1.574 1.574 0 0 0-.692-.533c-.299-.127-.654-.191-1.066-.191h-1.017v-1.694h1.017c.348 0 .655-.061.922-.181.27-.121.479-.288.628-.501.15-.217.224-.469.224-.756a1.313 1.313 0 0 0-.74-1.21 1.77 1.77 0 0 0-.81-.175c-.312 0-.598.056-.858.17-.259.11-.467.268-.623.474-.156.206-.24.448-.25.725H436.5c.011-.629.19-1.183.538-1.662.348-.48.817-.854 1.407-1.124.593-.274 1.262-.41 2.008-.41.753 0 1.411.136 1.976.41.565.273 1.003.643 1.316 1.108.316.461.472.98.468 1.555.004.611-.186 1.12-.57 1.529-.38.408-.875.667-1.486.778v.085c.803.103 1.414.382 1.833.836.422.451.632 1.016.628 1.694a2.662 2.662 0 0 1-.538 1.657c-.359.483-.854.863-1.486 1.14-.632.276-1.357.415-2.173.415Zm10.601-11.058v10.909h-2.306v-8.72h-.064l-2.498 1.566v-2.045l2.7-1.71h2.168Zm-98.01-38.374v8.727h-1.057v-7.619h-.051l-2.131 1.415v-1.074l2.182-1.449h1.057Zm5.578 0v8.727h-1.057v-7.619h-.051l-2.13 1.415v-1.074l2.181-1.449h1.057Zm7.641 7.159-4.807-4.807.648-.647 4.807 4.806-.648.648Zm-4.159 0-.648-.648 4.807-4.806.648.647-4.807 4.807Zm9.836 1.688a3.268 3.268 0 0 1-1.074-.205 2.585 2.585 0 0 1-.98-.66c-.295-.313-.533-.735-.712-1.266-.179-.534-.268-1.205-.268-2.011 0-.773.072-1.458.217-2.054.145-.6.355-1.104.631-1.513.276-.412.608-.725.997-.938a2.73 2.73 0 0 1 1.325-.319c.489 0 .924.098 1.304.294.384.193.696.463.938.809.241.347.398.746.469 1.198h-1.04a1.93 1.93 0 0 0-.563-.976c-.278-.259-.647-.388-1.108-.388-.676 0-1.208.294-1.598.882-.386.588-.581 1.414-.583 2.476h.068a2.578 2.578 0 0 1 1.3-1.018c.267-.094.549-.141.848-.141.5 0 .957.125 1.372.375.414.247.747.59.997 1.027.25.435.375.933.375 1.496 0 .54-.121 1.034-.362 1.483a2.758 2.758 0 0 1-1.019 1.065c-.434.261-.946.389-1.534.384Zm0-.938c.358 0 .679-.089.963-.268.287-.179.513-.419.678-.721.167-.301.251-.636.251-1.005 0-.361-.081-.689-.243-.985a1.852 1.852 0 0 0-.66-.711 1.751 1.751 0 0 0-.955-.264c-.27 0-.521.054-.754.162-.233.105-.438.25-.614.434a2.116 2.116 0 0 0-.409.635 2.018 2.018 0 0 0 .767 2.446c.287.185.612.277.976.277Zm4.966-3.545c0-1.074.139-2.061.417-2.962a9.242 9.242 0 0 1 1.202-2.493h.886a5.514 5.514 0 0 0-.575 1.04c-.176.409-.331.859-.464 1.351-.134.488-.239.994-.316 1.517a11.026 11.026 0 0 0-.111 1.547c0 .676.066 1.362.196 2.058.131.696.307 1.342.529 1.939.221.596.469 1.082.741 1.457h-.886a9.24 9.24 0 0 1-1.202-2.488c-.278-.904-.417-1.892-.417-2.966Zm6.87 4.483a3.268 3.268 0 0 1-1.074-.205 2.577 2.577 0 0 1-.98-.66c-.295-.313-.533-.735-.712-1.266-.179-.534-.268-1.205-.268-2.011 0-.773.072-1.458.217-2.054.145-.6.355-1.104.631-1.513a2.84 2.84 0 0 1 .997-.938 2.73 2.73 0 0 1 1.325-.319c.489 0 .924.098 1.304.294.384.193.696.463.938.809.241.347.398.746.469 1.198h-1.04a1.93 1.93 0 0 0-.563-.976c-.278-.259-.647-.388-1.108-.388-.676 0-1.208.294-1.598.882-.386.588-.581 1.414-.583 2.476h.068a2.55 2.55 0 0 1 2.147-1.159c.5 0 .958.125 1.373.375.414.247.747.59.997 1.027.25.435.375.933.375 1.496 0 .54-.121 1.034-.362 1.483a2.758 2.758 0 0 1-1.019 1.065c-.435.261-.946.389-1.534.384Zm0-.938c.358 0 .679-.089.963-.268.287-.179.513-.419.678-.721.167-.301.251-.636.251-1.005 0-.361-.081-.689-.243-.985a1.852 1.852 0 0 0-.66-.711 1.751 1.751 0 0 0-.955-.264c-.27 0-.521.054-.754.162-.233.105-.438.25-.614.434a2.116 2.116 0 0 0-.409.635 2.018 2.018 0 0 0 .767 2.446c.287.185.612.277.976.277Zm7.488.938a3.268 3.268 0 0 1-1.074-.205 2.585 2.585 0 0 1-.98-.66c-.295-.313-.532-.735-.711-1.266-.179-.534-.269-1.205-.269-2.011 0-.773.073-1.458.218-2.054.144-.6.355-1.104.63-1.513.276-.412.608-.725.997-.938a2.732 2.732 0 0 1 1.326-.319c.488 0 .923.098 1.304.294.383.193.696.463.937.809.242.347.398.746.469 1.198h-1.04a1.928 1.928 0 0 0-.562-.976c-.279-.259-.648-.388-1.108-.388-.676 0-1.209.294-1.598.882-.387.588-.581 1.414-.584 2.476h.068a2.578 2.578 0 0 1 1.3-1.018c.267-.094.549-.141.848-.141.5 0 .957.125 1.372.375.415.247.747.59.997 1.027.25.435.375.933.375 1.496 0 .54-.121 1.034-.362 1.483a2.758 2.758 0 0 1-1.019 1.065c-.434.261-.946.389-1.534.384Zm0-.938c.358 0 .679-.089.963-.268.287-.179.513-.419.678-.721.168-.301.251-.636.251-1.005 0-.361-.081-.689-.243-.985a1.852 1.852 0 0 0-.66-.711 1.749 1.749 0 0 0-.955-.264c-.27 0-.521.054-.754.162a1.964 1.964 0 0 0-1.023 1.069 2.018 2.018 0 0 0 .767 2.446c.287.185.613.277.976.277Zm6.756-3.545c0 1.074-.141 2.062-.422 2.966a9.17 9.17 0 0 1-1.198 2.488h-.886c.204-.281.395-.628.571-1.04.179-.409.335-.858.469-1.346a12.6 12.6 0 0 0 .311-1.521c.076-.526.115-1.042.115-1.547 0-.676-.065-1.363-.196-2.059a11.8 11.8 0 0 0-.529-1.938c-.221-.597-.468-1.083-.741-1.458h.886c.52.759.919 1.59 1.198 2.493.281.901.422 1.888.422 2.962Z" fill="#000"/><path stroke="#000" d="M499.113 339.026h131.198v39H499.113z"/><path d="M613.588 375.205c-.796 0-1.504-.137-2.125-.411-.618-.277-1.107-.657-1.465-1.14a2.866 2.866 0 0 1-.549-1.683h2.323c.014.267.101.501.261.703.163.199.38.354.649.464.27.11.574.165.911.165.352 0 .663-.062.932-.187.27-.124.482-.296.634-.516.153-.22.229-.474.229-.762a1.27 1.27 0 0 0-.245-.772 1.556 1.556 0 0 0-.692-.533c-.298-.128-.654-.192-1.065-.192h-1.018v-1.694h1.018c.348 0 .655-.06.921-.181.27-.12.479-.287.629-.5.149-.217.223-.469.223-.757 0-.273-.065-.513-.197-.719a1.306 1.306 0 0 0-.543-.49 1.77 1.77 0 0 0-.81-.176c-.312 0-.598.057-.857.171a1.5 1.5 0 0 0-.624.474 1.25 1.25 0 0 0-.25.724h-2.211c.011-.628.19-1.182.538-1.662a3.496 3.496 0 0 1 1.407-1.124c.593-.273 1.262-.41 2.008-.41.753 0 1.411.137 1.976.41.565.274 1.003.643 1.316 1.108.316.462.472.98.469 1.556.003.61-.187 1.12-.57 1.528-.38.409-.876.668-1.487.778v.085c.803.103 1.414.382 1.833.837.422.451.632 1.015.628 1.694a2.653 2.653 0 0 1-.538 1.656c-.358.483-.854.863-1.486 1.14-.632.277-1.356.416-2.173.416Zm5.69-2.067v-1.817l4.555-7.175h1.566v2.515h-.927l-2.871 4.543v.085h6.472v1.849h-8.795Zm5.236 1.917v-2.471l.043-.805v-7.633h2.163v10.909h-2.206Zm-119.88-32.515v8.727h-1.057v-7.619h-.051l-2.13 1.414v-1.074l2.181-1.448h1.057Zm5.459 8.846c-.563 0-1.064-.096-1.504-.29a2.565 2.565 0 0 1-1.044-.805 2.167 2.167 0 0 1-.418-1.206h1.074c.023.281.119.524.29.729.17.201.393.358.669.468.275.111.581.167.916.167.375 0 .707-.066.997-.196.29-.131.517-.313.682-.546.165-.233.247-.503.247-.809 0-.321-.079-.604-.239-.848a1.576 1.576 0 0 0-.698-.58c-.307-.139-.682-.209-1.125-.209h-.699v-.937h.699c.346 0 .65-.063.912-.188a1.417 1.417 0 0 0 .843-1.329c0-.296-.065-.553-.196-.772a1.337 1.337 0 0 0-.554-.511 1.795 1.795 0 0 0-.835-.183c-.301 0-.585.055-.852.166-.264.108-.48.266-.648.473a1.234 1.234 0 0 0-.273.741h-1.022c.017-.457.154-.858.413-1.201a2.598 2.598 0 0 1 1.014-.81c.421-.193.882-.29 1.385-.29.54 0 1.003.11 1.389.328.387.216.684.502.891.857.207.355.311.739.311 1.15 0 .492-.129.911-.388 1.258a1.966 1.966 0 0 1-1.044.72v.068c.551.091.982.325 1.291.703.31.375.465.84.465 1.394 0 .474-.129.9-.388 1.278-.256.375-.605.67-1.048.886-.443.216-.948.324-1.513.324Zm9.822-1.687-4.806-4.807.647-.648 4.807 4.807-.648.648Zm-4.159 0-.647-.648 4.806-4.807.648.648-4.807 4.807Zm6.734-.222v-.869l3.836-6.068h.63v1.346h-.426l-2.898 4.585v.069h5.165v.937h-6.307Zm4.108 1.79v-8.727h1.006v8.727h-1.006Zm4.171-4.364c0-1.074.139-2.061.418-2.961a9.24 9.24 0 0 1 1.201-2.493h.887a5.479 5.479 0 0 0-.575 1.039c-.177.41-.331.86-.465 1.351a12.81 12.81 0 0 0-.315 1.517 11.036 11.036 0 0 0-.111 1.547c0 .676.065 1.362.196 2.058.131.696.307 1.343.528 1.939.222.597.469 1.083.742 1.458h-.887a9.273 9.273 0 0 1-1.201-2.489c-.279-.903-.418-1.892-.418-2.966Zm6.7 4.483c-.5 0-.95-.099-1.351-.298a2.523 2.523 0 0 1-.963-.818 2.238 2.238 0 0 1-.396-1.185h1.023c.039.395.218.722.536.98.322.256.705.384 1.151.384.358 0 .676-.084.955-.252.281-.167.501-.397.66-.69a2.05 2.05 0 0 0 .243-1.002c0-.38-.084-.72-.251-1.018a1.853 1.853 0 0 0-.682-.712 1.932 1.932 0 0 0-.993-.264 2.738 2.738 0 0 0-.823.124 2.294 2.294 0 0 0-.694.319l-.989-.119.529-4.295h4.534v.937h-3.648l-.307 2.574h.051c.179-.142.404-.26.674-.354a2.54 2.54 0 0 1 .843-.14 2.69 2.69 0 0 1 2.417 1.423c.241.44.362.943.362 1.508 0 .557-.125 1.054-.375 1.492a2.737 2.737 0 0 1-1.023 1.031c-.435.25-.929.375-1.483.375Zm4.574-.119v-.767l2.88-3.154c.338-.369.617-.69.835-.963.219-.275.381-.534.486-.775.108-.245.162-.5.162-.767a1.42 1.42 0 0 0-.221-.797 1.434 1.434 0 0 0-.597-.52 1.936 1.936 0 0 0-.852-.183c-.335 0-.628.069-.878.209a1.434 1.434 0 0 0-.575.575 1.796 1.796 0 0 0-.201.869h-1.005c0-.511.118-.96.353-1.346.236-.387.557-.688.963-.904.41-.216.868-.324 1.377-.324.511 0 .964.108 1.359.324.395.216.705.507.929.874.225.366.337.774.337 1.223 0 .321-.058.635-.175.941-.114.304-.312.644-.596 1.019-.282.372-.672.827-1.172 1.364l-1.961 2.096v.068h4.057v.938h-5.505Zm9.43-4.364c0 1.074-.141 2.063-.422 2.966a9.145 9.145 0 0 1-1.197 2.489h-.887c.205-.281.395-.628.571-1.04.179-.409.336-.858.469-1.347.134-.491.237-.998.311-1.521a10.654 10.654 0 0 0-.081-3.605 11.942 11.942 0 0 0-.528-1.939c-.222-.597-.469-1.082-.742-1.457h.887c.52.758.919 1.589 1.197 2.493.281.9.422 1.887.422 2.961Z" fill="#000"/><path stroke="#000" d="M49.113 359.5h128.593v69H49.113z"/><path d="M161.872 425.883c-.796 0-1.504-.136-2.125-.41-.618-.277-1.107-.657-1.465-1.14a2.866 2.866 0 0 1-.549-1.683h2.322c.015.266.102.501.262.703a1.6 1.6 0 0 0 .649.464c.27.11.574.165.911.165.352 0 .663-.062.932-.187.27-.124.482-.296.634-.516.153-.221.229-.474.229-.762a1.27 1.27 0 0 0-.245-.772 1.556 1.556 0 0 0-.692-.533c-.298-.128-.654-.192-1.066-.192h-1.017v-1.694h1.017c.349 0 .656-.06.922-.181.27-.121.479-.288.629-.501.149-.216.223-.468.223-.756 0-.273-.065-.513-.197-.719a1.3 1.3 0 0 0-.543-.49 1.77 1.77 0 0 0-.81-.176c-.312 0-.598.057-.857.171a1.5 1.5 0 0 0-.624.474 1.25 1.25 0 0 0-.25.724h-2.211c.011-.629.19-1.182.538-1.662a3.496 3.496 0 0 1 1.407-1.124c.593-.273 1.262-.41 2.008-.41.753 0 1.411.137 1.976.41.565.274 1.003.643 1.316 1.108.316.462.472.98.469 1.556.003.61-.187 1.12-.57 1.528-.38.409-.876.668-1.487.778v.085c.803.103 1.414.382 1.833.837.422.45.632 1.015.628 1.693a2.654 2.654 0 0 1-.538 1.657c-.358.483-.854.863-1.486 1.14-.632.277-1.356.415-2.173.415Zm6.287-.149 4.522-8.949v-.074h-5.268v-1.886h7.654v1.912l-4.527 8.997h-2.381ZM54.594 363.569v8.727h-1.057v-7.619h-.05l-2.132 1.415v-1.074l2.182-1.449h1.057Zm5.459 8.847c-.563 0-1.064-.097-1.504-.29a2.574 2.574 0 0 1-1.044-.806 2.162 2.162 0 0 1-.418-1.206h1.074c.023.282.12.525.29.729.17.202.393.358.669.469.275.111.58.166.916.166.375 0 .707-.065.997-.196.29-.131.517-.312.682-.545.165-.233.247-.503.247-.81 0-.321-.08-.604-.239-.848a1.587 1.587 0 0 0-.698-.58c-.307-.139-.682-.208-1.125-.208h-.7v-.938h.7c.346 0 .65-.062.912-.187a1.416 1.416 0 0 0 .844-1.33c0-.295-.066-.553-.197-.771a1.346 1.346 0 0 0-.554-.512 1.795 1.795 0 0 0-.835-.183c-.301 0-.585.056-.852.166a1.59 1.59 0 0 0-.648.473 1.234 1.234 0 0 0-.273.742h-1.022c.017-.458.154-.858.413-1.202a2.615 2.615 0 0 1 1.014-.81 3.28 3.28 0 0 1 1.385-.289c.54 0 1.003.109 1.39.328.386.216.683.501.89.856.207.355.311.739.311 1.151 0 .491-.13.91-.388 1.257a1.96 1.96 0 0 1-1.044.72v.068c.551.091.982.326 1.291.703.31.375.465.84.465 1.394 0 .474-.13.901-.388 1.278a2.636 2.636 0 0 1-1.048.887c-.443.216-.948.324-1.513.324Zm9.822-1.688-4.806-4.807.647-.647 4.807 4.806-.648.648Zm-4.159 0-.647-.648 4.806-4.806.648.647-4.807 4.807Zm7.212 1.568 3.903-7.721v-.069h-4.5v-.937h5.59v.989l-3.885 7.738h-1.108Zm6.957-4.363c0-1.074.14-2.061.418-2.962a9.25 9.25 0 0 1 1.202-2.493h.886a5.486 5.486 0 0 0-.575 1.04c-.176.409-.331.859-.465 1.351-.133.488-.238.994-.315 1.517a11.03 11.03 0 0 0-.11 1.547c0 .676.064 1.362.195 2.058.13.696.307 1.342.529 1.939.221.596.468 1.082.741 1.457h-.886a9.248 9.248 0 0 1-1.202-2.488c-.278-.904-.418-1.893-.418-2.966Zm6.751-4.483c.358.003.716.071 1.074.204.358.134.685.355.98.665.296.307.533.726.712 1.257.179.531.269 1.198.269 1.999 0 .775-.074 1.464-.222 2.066-.145.6-.355 1.106-.63 1.517a2.796 2.796 0 0 1-.998.938c-.39.213-.83.32-1.321.32a2.87 2.87 0 0 1-1.308-.29 2.573 2.573 0 0 1-.938-.814 2.835 2.835 0 0 1-.464-1.215h1.04c.093.401.28.732.558.993.281.259.652.388 1.112.388.673 0 1.205-.294 1.594-.882.392-.588.588-1.419.588-2.493h-.068c-.16.239-.348.445-.567.618a2.509 2.509 0 0 1-1.581.541c-.5 0-.959-.123-1.376-.371a2.81 2.81 0 0 1-.998-1.027c-.247-.437-.37-.937-.37-1.5 0-.534.119-1.022.358-1.465a2.77 2.77 0 0 1 1.014-1.066c.437-.264.952-.392 1.542-.383Zm0 .937c-.358 0-.68.09-.967.269-.284.176-.51.414-.677.716a2.016 2.016 0 0 0-.248.992c0 .364.08.695.239.993.162.296.382.532.66.708.282.173.601.26.96.26.27 0 .52-.053.754-.158a1.95 1.95 0 0 0 .609-.439 2.12 2.12 0 0 0 .413-.635 1.948 1.948 0 0 0-.098-1.704 1.96 1.96 0 0 0-.673-.725 1.749 1.749 0 0 0-.972-.277Zm7.779-.818v8.727h-1.057v-7.619h-.052l-2.13 1.415v-1.074l2.182-1.449h1.056Zm4.674 4.364c0 1.073-.14 2.062-.422 2.966-.278.9-.677 1.73-1.197 2.488h-.886a5.33 5.33 0 0 0 .57-1.04c.18-.409.336-.858.47-1.346.133-.492.237-.999.31-1.521a10.703 10.703 0 0 0-.08-3.606 11.85 11.85 0 0 0-.529-1.939c-.222-.596-.469-1.082-.742-1.457h.887a9.16 9.16 0 0 1 1.197 2.493c.282.901.422 1.888.422 2.962Z" fill="#000"/><path stroke="#000" d="M48.5 269.556h131.198v59.53H48.5z"/><path d="M163.127 326.149c-.795 0-1.504-.137-2.125-.41-.618-.277-1.106-.657-1.465-1.14a2.87 2.87 0 0 1-.549-1.683h2.323c.014.266.101.5.261.703.163.199.38.353.65.463.27.11.573.165.911.165.351 0 .662-.062.932-.186a1.53 1.53 0 0 0 .634-.517c.152-.22.229-.474.229-.761 0-.292-.082-.549-.245-.773a1.563 1.563 0 0 0-.693-.532c-.298-.128-.653-.192-1.065-.192h-1.018v-1.694h1.018c.348 0 .655-.061.921-.181.27-.121.48-.288.629-.501.149-.217.224-.469.224-.756a1.31 1.31 0 0 0-.741-1.21 1.77 1.77 0 0 0-.809-.175c-.313 0-.599.057-.858.17-.259.11-.467.268-.623.474-.157.206-.24.448-.251.725h-2.21c.01-.629.19-1.183.538-1.662.348-.48.817-.854 1.406-1.124.593-.274 1.262-.41 2.008-.41.753 0 1.412.136 1.976.41.565.273 1.004.643 1.316 1.108.316.461.472.98.469 1.555.003.611-.187 1.121-.57 1.529-.38.408-.875.668-1.486.778v.085c.802.103 1.413.382 1.832.836.423.451.632 1.016.629 1.694a2.669 2.669 0 0 1-.538 1.657c-.359.483-.854.863-1.486 1.14-.633.277-1.357.415-2.174.415Zm9.925 0c-.82 0-1.55-.133-2.189-.399-.636-.27-1.135-.638-1.497-1.103a2.509 2.509 0 0 1-.543-1.582c0-.455.103-.872.309-1.252.209-.383.493-.701.852-.953.359-.256.76-.419 1.204-.49v-.075a2.364 2.364 0 0 1-1.417-.847 2.437 2.437 0 0 1-.543-1.571c0-.565.165-1.067.495-1.508.33-.444.783-.792 1.358-1.044.579-.256 1.236-.383 1.971-.383.735 0 1.39.127 1.966.383.579.256 1.033.606 1.363 1.05.331.44.498.941.501 1.502a2.426 2.426 0 0 1-.554 1.571c-.366.447-.834.73-1.406.847v.075a2.76 2.76 0 0 1 1.188.49c.358.252.643.57.852.953a2.563 2.563 0 0 1-.224 2.834c-.362.465-.863.833-1.502 1.103-.635.266-1.363.399-2.184.399Zm0-1.694c.366 0 .686-.066.959-.197.273-.135.487-.32.639-.554.156-.238.235-.511.235-.82 0-.316-.08-.595-.24-.837a1.656 1.656 0 0 0-.65-.575 2.016 2.016 0 0 0-.943-.213 2.04 2.04 0 0 0-.943.213c-.277.139-.495.33-.655.575a1.51 1.51 0 0 0-.234.837c0 .309.076.582.229.82.153.234.367.419.644.554.277.131.597.197.959.197Zm0-4.874c.306 0 .577-.062.815-.186.238-.125.425-.297.56-.517.134-.22.202-.474.202-.762a1.37 1.37 0 0 0-.756-1.251 1.72 1.72 0 0 0-.821-.187c-.309 0-.582.062-.82.187a1.37 1.37 0 0 0-.559.506 1.384 1.384 0 0 0-.197.745c0 .288.067.542.202.762.135.22.321.392.559.517.238.124.51.186.815.186ZM54.021 273.449v8.728h-1.057v-7.62h-.05l-2.132 1.415v-1.074l2.182-1.449h1.057Zm5.459 8.847c-.563 0-1.064-.097-1.504-.29a2.58 2.58 0 0 1-1.044-.805 2.168 2.168 0 0 1-.418-1.206h1.074c.023.281.12.524.29.728.17.202.393.358.669.469.275.111.58.166.916.166.375 0 .707-.065.997-.196.29-.13.517-.312.682-.545.165-.233.247-.503.247-.81 0-.321-.08-.603-.239-.848a1.578 1.578 0 0 0-.698-.579c-.307-.14-.682-.209-1.125-.209h-.7v-.938h.7c.346 0 .65-.062.912-.187a1.416 1.416 0 0 0 .844-1.33c0-.295-.066-.552-.197-.771a1.337 1.337 0 0 0-.554-.511 1.783 1.783 0 0 0-.835-.184c-.301 0-.585.056-.852.167a1.58 1.58 0 0 0-.648.473 1.228 1.228 0 0 0-.273.741h-1.022c.017-.457.154-.858.413-1.202a2.604 2.604 0 0 1 1.014-.809 3.28 3.28 0 0 1 1.385-.29c.54 0 1.003.109 1.39.328.386.216.682.501.89.857.207.355.311.738.311 1.15 0 .492-.13.911-.388 1.257a1.96 1.96 0 0 1-1.044.72v.069c.551.091.982.325 1.291.703.31.375.465.839.465 1.393 0 .475-.13.901-.388 1.279-.256.375-.605.67-1.048.886-.443.216-.948.324-1.513.324Zm9.822-1.688-4.806-4.806.647-.648 4.807 4.807-.648.647Zm-4.159 0-.647-.647 4.806-4.807.648.648-4.807 4.806Zm9.837 1.688a3.267 3.267 0 0 1-1.074-.205 2.57 2.57 0 0 1-.98-.66c-.296-.313-.533-.735-.712-1.266-.179-.534-.269-1.204-.269-2.011 0-.773.073-1.458.218-2.054.145-.6.355-1.104.63-1.513a2.84 2.84 0 0 1 .998-.937 2.72 2.72 0 0 1 1.325-.32c.489 0 .923.098 1.304.294.383.193.696.463.937.81.242.346.398.745.47 1.197h-1.04a1.93 1.93 0 0 0-.563-.976c-.279-.258-.648-.388-1.108-.388-.676 0-1.209.294-1.598.883-.386.588-.581 1.413-.584 2.475h.068a2.568 2.568 0 0 1 1.3-1.018c.267-.094.55-.141.848-.141.5 0 .957.125 1.372.375.415.247.747.59.997 1.027.25.435.375.934.375 1.496 0 .54-.12 1.034-.362 1.483a2.757 2.757 0 0 1-1.018 1.065c-.435.262-.946.39-1.534.384Zm0-.938c.358 0 .679-.089.963-.268a1.92 1.92 0 0 0 .677-.72 2.03 2.03 0 0 0 .252-1.006 2.01 2.01 0 0 0-.243-.984 1.848 1.848 0 0 0-.66-.712 1.748 1.748 0 0 0-.955-.264c-.27 0-.522.054-.755.162-.233.105-.437.25-.613.434-.174.185-.31.397-.41.635a2.02 2.02 0 0 0 .094 1.718c.165.301.39.544.674.728.287.185.612.277.976.277Zm4.965-3.545c0-1.074.14-2.061.418-2.962a9.25 9.25 0 0 1 1.201-2.493h.887a5.512 5.512 0 0 0-.575 1.04 10.1 10.1 0 0 0-.465 1.351c-.133.489-.239.994-.315 1.517a11.026 11.026 0 0 0-.111 1.547c0 .676.065 1.362.196 2.058.13.696.307 1.342.528 1.939.222.597.47 1.082.742 1.457h-.886a9.248 9.248 0 0 1-1.202-2.488c-.279-.904-.418-1.892-.418-2.966Zm4.246 4.364 3.903-7.722v-.068h-4.5v-.938h5.59v.989l-3.885 7.739H84.19Zm9.202.119c-.585 0-1.102-.104-1.551-.311a2.543 2.543 0 0 1-1.044-.865c-.25-.37-.374-.79-.371-1.262a2.316 2.316 0 0 1 .822-1.811c.259-.213.547-.348.866-.405v-.051a1.684 1.684 0 0 1-.998-.703 2.129 2.129 0 0 1-.366-1.24 2.11 2.11 0 0 1 .337-1.189c.227-.349.54-.625.937-.827.4-.201.857-.302 1.368-.302.506 0 .957.101 1.355.302.398.202.71.478.938.827.23.35.346.746.349 1.189a2.16 2.16 0 0 1-.38 1.24 1.682 1.682 0 0 1-.984.703v.051c.316.057.6.192.853.405a2.375 2.375 0 0 1 .835 1.811 2.2 2.2 0 0 1-.384 1.262c-.25.366-.598.655-1.044.865-.443.207-.956.311-1.538.311Zm0-.938c.395 0 .736-.064 1.023-.191a1.53 1.53 0 0 0 .665-.542 1.46 1.46 0 0 0 .238-.818 1.567 1.567 0 0 0-.256-.873 1.735 1.735 0 0 0-.686-.597 2.152 2.152 0 0 0-.984-.217c-.372 0-.705.072-.997.217a1.73 1.73 0 0 0-.686.597 1.536 1.536 0 0 0-.243.873c-.003.313.072.585.226.818.156.233.379.414.669.542.29.127.633.191 1.031.191Zm0-4.142c.313 0 .59-.062.83-.187.245-.125.437-.3.576-.524.14-.225.21-.488.213-.789a1.457 1.457 0 0 0-.209-.771 1.35 1.35 0 0 0-.566-.511 1.835 1.835 0 0 0-.844-.184c-.327 0-.612.061-.857.184a1.316 1.316 0 0 0-.566.511 1.424 1.424 0 0 0-.196.771c-.003.301.064.564.2.789.14.224.33.399.575.524.244.125.526.187.844.187Zm6.764.597c0 1.074-.141 2.062-.422 2.966-.278.9-.678 1.73-1.198 2.488h-.886c.205-.281.395-.627.571-1.039.18-.409.335-.858.469-1.347.133-.491.237-.999.311-1.521a10.707 10.707 0 0 0-.081-3.605 11.823 11.823 0 0 0-.528-1.939c-.222-.597-.47-1.083-.742-1.458h.886c.52.759.92 1.59 1.198 2.493.281.901.422 1.888.422 2.962Z" fill="#000"/><path stroke="#000" d="M499.113 219.829h129v39h-129z"/><path d="M603.905 254.856v-1.817l4.554-7.175h1.567v2.514h-.927l-2.871 4.544v.085h6.472v1.849h-8.795Zm5.236 1.917v-2.471l.043-.805v-7.633h2.163v10.909h-2.206Zm5.095 0v-1.662l3.883-3.595c.331-.32.608-.607.831-.863.228-.256.4-.506.517-.751.117-.249.176-.517.176-.804 0-.32-.073-.595-.218-.826a1.439 1.439 0 0 0-.597-.538 1.868 1.868 0 0 0-.858-.192c-.333 0-.625.068-.873.203a1.389 1.389 0 0 0-.576.58 1.892 1.892 0 0 0-.202.9h-2.189c0-.713.161-1.333.484-1.859a3.238 3.238 0 0 1 1.359-1.219c.582-.288 1.253-.432 2.013-.432.782 0 1.462.139 2.04.416.583.273 1.036.653 1.359 1.139.323.487.484 1.045.484 1.673 0 .412-.081.819-.245 1.22-.159.401-.445.847-.857 1.337-.412.486-.993 1.071-1.742 1.752l-1.593 1.561v.075h4.581v1.885h-7.777ZM504.6 223.342v8.728h-1.056v-7.62h-.051l-2.131 1.415v-1.074l2.182-1.449h1.056Zm5.459 8.847c-.562 0-1.064-.097-1.504-.29a2.579 2.579 0 0 1-1.044-.805 2.167 2.167 0 0 1-.418-1.206h1.074c.023.281.12.524.29.729.17.201.393.358.669.468.276.111.581.167.916.167.375 0 .708-.066.997-.197.29-.13.517-.312.682-.545.165-.233.247-.503.247-.81 0-.321-.079-.603-.238-.848a1.578 1.578 0 0 0-.699-.579c-.307-.139-.682-.209-1.125-.209h-.699v-.937h.699c.346 0 .65-.063.912-.188.264-.125.47-.301.618-.528.15-.228.226-.495.226-.802 0-.295-.066-.552-.196-.771a1.343 1.343 0 0 0-.554-.511 1.799 1.799 0 0 0-.836-.183c-.301 0-.585.055-.852.166-.264.108-.48.265-.648.473a1.23 1.23 0 0 0-.272.741h-1.023c.017-.457.155-.858.413-1.201a2.605 2.605 0 0 1 1.014-.81c.421-.193.883-.29 1.385-.29.54 0 1.003.109 1.39.328.386.216.683.502.89.857.208.355.311.738.311 1.15 0 .492-.129.911-.387 1.257a1.968 1.968 0 0 1-1.045.721v.068c.552.091.982.325 1.292.703.309.375.464.839.464 1.393 0 .475-.129.901-.388 1.279a2.63 2.63 0 0 1-1.048.886c-.443.216-.947.324-1.513.324Zm9.823-1.687-4.807-4.807.648-.648 4.806 4.807-.647.648Zm-4.159 0-.648-.648 4.807-4.807.647.648-4.806 4.807Zm6.734-.222v-.869l3.835-6.069h.631v1.347h-.427l-2.897 4.585v.068h5.164v.938h-6.306Zm4.108 1.79v-8.728h1.005v8.728h-1.005Zm4.17-4.364c0-1.074.14-2.061.418-2.962a9.222 9.222 0 0 1 1.202-2.492h.886a5.503 5.503 0 0 0-.575 1.039c-.176.409-.331.86-.465 1.351a12.97 12.97 0 0 0-.315 1.517 11.036 11.036 0 0 0-.111 1.547c0 .676.066 1.362.196 2.058.131.696.307 1.343.529 1.939.221.597.468 1.083.741 1.458h-.886a9.246 9.246 0 0 1-1.202-2.489c-.278-.903-.418-1.892-.418-2.966Zm6.7 4.483c-.5 0-.95-.099-1.35-.298a2.518 2.518 0 0 1-.964-.818 2.238 2.238 0 0 1-.396-1.185h1.023c.04.395.219.721.537.98.321.256.704.384 1.15.384.358 0 .677-.084.955-.252a1.78 1.78 0 0 0 .66-.69c.162-.296.243-.63.243-1.002 0-.38-.083-.72-.251-1.018a1.853 1.853 0 0 0-.682-.712 1.932 1.932 0 0 0-.993-.264 2.696 2.696 0 0 0-.822.124 2.29 2.29 0 0 0-.695.319l-.988-.119.528-4.296h4.534v.938h-3.648l-.307 2.574h.052a2.28 2.28 0 0 1 .673-.354c.27-.094.551-.141.844-.141.534 0 1.01.128 1.427.384.421.253.75.599.989 1.04.241.44.362.943.362 1.508 0 .557-.125 1.054-.375 1.492a2.744 2.744 0 0 1-1.023 1.031c-.434.25-.929.375-1.483.375Zm4.574-.119v-.767l2.881-3.154c.338-.369.616-.69.835-.963.219-.275.38-.534.486-.775.108-.245.162-.5.162-.767a1.413 1.413 0 0 0-.819-1.317 1.936 1.936 0 0 0-.852-.183c-.335 0-.628.069-.878.208a1.436 1.436 0 0 0-.575.576c-.134.247-.2.537-.2.869h-1.006c0-.511.118-.96.354-1.347a2.45 2.45 0 0 1 .963-.903 2.902 2.902 0 0 1 1.376-.324c.512 0 .965.108 1.36.324.394.216.704.507.929.874.224.366.336.774.336 1.223 0 .321-.058.635-.175.941-.113.304-.312.644-.596 1.019a18.2 18.2 0 0 1-1.172 1.363l-1.96 2.097v.068h4.057v.938h-5.506Zm9.43-4.364c0 1.074-.14 2.063-.422 2.966a9.145 9.145 0 0 1-1.197 2.489h-.886c.204-.282.394-.628.571-1.04.179-.409.335-.858.468-1.347.134-.491.238-.998.311-1.521.077-.526.116-1.041.116-1.547 0-.676-.066-1.362-.197-2.058a11.715 11.715 0 0 0-.528-1.939c-.222-.597-.469-1.082-.741-1.457h.886c.52.758.919 1.589 1.197 2.492.282.901.422 1.888.422 2.962Z" fill="#000"/><path stroke="#000" d="M499.113 258.872h129v49h-129z"/><path d="M605.033 302.01v-1.817l4.554-7.175h1.566v2.514h-.926l-2.871 4.544v.085h6.471v1.849h-8.794Zm5.236 1.917v-2.471l.043-.805v-7.633h2.162v10.909h-2.205Zm9.695-10.909v10.909h-2.307v-8.719h-.064l-2.498 1.566v-2.046l2.701-1.71h2.168ZM504.6 262.57v8.728h-1.056v-7.62h-.051l-2.131 1.415v-1.074l2.182-1.449h1.056Zm5.459 8.847c-.562 0-1.064-.097-1.504-.29a2.579 2.579 0 0 1-1.044-.805 2.167 2.167 0 0 1-.418-1.206h1.074c.023.281.12.524.29.729.17.201.393.358.669.468.276.111.581.167.916.167.375 0 .708-.066.997-.196.29-.131.517-.313.682-.546.165-.233.247-.503.247-.81 0-.321-.079-.603-.238-.848a1.578 1.578 0 0 0-.699-.579c-.307-.139-.682-.209-1.125-.209h-.699v-.937h.699c.346 0 .65-.063.912-.188.264-.125.47-.301.618-.528.15-.228.226-.495.226-.801 0-.296-.066-.553-.196-.772a1.343 1.343 0 0 0-.554-.511 1.799 1.799 0 0 0-.836-.183c-.301 0-.585.055-.852.166-.264.108-.48.265-.648.473a1.233 1.233 0 0 0-.272.741h-1.023c.017-.457.155-.858.413-1.201a2.605 2.605 0 0 1 1.014-.81c.421-.193.883-.29 1.385-.29.54 0 1.003.11 1.39.328.386.216.683.502.89.857.208.355.311.738.311 1.15 0 .492-.129.911-.387 1.257a1.968 1.968 0 0 1-1.045.721v.068c.552.091.982.325 1.292.703.309.375.464.839.464 1.393 0 .475-.129.901-.388 1.279a2.63 2.63 0 0 1-1.048.886c-.443.216-.947.324-1.513.324Zm9.823-1.687-4.807-4.807.648-.648 4.806 4.807-.647.648Zm-4.159 0-.648-.648 4.807-4.807.647.648-4.806 4.807Zm9.665 1.687c-.5 0-.95-.099-1.35-.298a2.508 2.508 0 0 1-.963-.818 2.23 2.23 0 0 1-.397-1.185h1.023c.04.395.219.722.537.98.321.256.704.384 1.15.384.358 0 .677-.084.955-.252.281-.167.501-.398.661-.69a2.06 2.06 0 0 0 .242-1.002c0-.38-.083-.72-.251-1.018a1.853 1.853 0 0 0-.682-.712 1.932 1.932 0 0 0-.993-.264 2.696 2.696 0 0 0-.822.124 2.3 2.3 0 0 0-.695.319l-.988-.119.528-4.296h4.534v.938h-3.648l-.306 2.574h.051a2.28 2.28 0 0 1 .673-.354c.27-.094.551-.14.844-.14.534 0 1.01.127 1.427.383.421.253.75.599.989 1.04.241.44.362.943.362 1.508 0 .557-.125 1.054-.375 1.492a2.744 2.744 0 0 1-1.023 1.031c-.434.25-.929.375-1.483.375Zm4.949-4.483c0-1.074.139-2.061.418-2.962a9.219 9.219 0 0 1 1.201-2.492h.887a5.448 5.448 0 0 0-.576 1.039c-.176.409-.331.86-.464 1.351-.134.489-.239.994-.315 1.517a11.036 11.036 0 0 0-.111 1.547c0 .676.065 1.362.196 2.058.13.696.307 1.343.528 1.939.222.597.469 1.083.742 1.458h-.887a9.244 9.244 0 0 1-1.201-2.489c-.279-.903-.418-1.892-.418-2.966Zm6.87 4.483a3.281 3.281 0 0 1-1.073-.204 2.58 2.58 0 0 1-.981-.661c-.295-.313-.532-.734-.711-1.266-.179-.534-.269-1.204-.269-2.011 0-.773.073-1.457.218-2.054.145-.599.355-1.104.63-1.513.276-.412.608-.724.997-.937.393-.213.834-.32 1.326-.32.488 0 .923.098 1.304.294.383.193.696.463.937.81.242.346.398.746.469 1.197h-1.04a1.928 1.928 0 0 0-.562-.976c-.279-.258-.648-.387-1.108-.387-.676 0-1.209.294-1.598.882-.387.588-.581 1.413-.584 2.476h.068c.159-.242.348-.448.567-.618a2.54 2.54 0 0 1 1.581-.541c.5 0 .957.125 1.372.375.415.247.747.589.997 1.026.25.435.375.934.375 1.496 0 .54-.121 1.034-.362 1.483a2.768 2.768 0 0 1-1.019 1.066c-.434.261-.946.389-1.534.383Zm0-.937c.358 0 .679-.09.963-.269.287-.179.513-.419.678-.72.168-.301.251-.636.251-1.006a2.02 2.02 0 0 0-.242-.984 1.865 1.865 0 0 0-.661-.712 1.749 1.749 0 0 0-.955-.264c-.269 0-.521.054-.754.162-.233.105-.437.25-.613.435-.174.184-.31.396-.41.635a2.02 2.02 0 0 0 .768 2.446c.286.184.612.277.975.277Zm7.318.937c-.5 0-.95-.099-1.351-.298a2.523 2.523 0 0 1-.963-.818 2.238 2.238 0 0 1-.396-1.185h1.023c.039.395.218.722.537.98.321.256.704.384 1.15.384.358 0 .676-.084.955-.252.281-.167.501-.398.66-.69a2.05 2.05 0 0 0 .243-1.002c0-.38-.084-.72-.251-1.018a1.853 1.853 0 0 0-.682-.712 1.932 1.932 0 0 0-.993-.264 2.696 2.696 0 0 0-.822.124 2.29 2.29 0 0 0-.695.319l-.989-.119.529-4.296h4.534v.938h-3.648l-.307 2.574h.051c.179-.142.404-.26.674-.354.27-.094.551-.14.843-.14a2.682 2.682 0 0 1 2.417 1.423c.241.44.362.943.362 1.508 0 .557-.125 1.054-.375 1.492a2.744 2.744 0 0 1-1.023 1.031c-.434.25-.929.375-1.483.375Zm6.738-4.483c0 1.074-.14 2.063-.421 2.966a9.177 9.177 0 0 1-1.198 2.489h-.886c.204-.282.395-.628.571-1.04.179-.409.335-.858.469-1.347.133-.491.237-.998.311-1.521.076-.526.115-1.041.115-1.547 0-.676-.066-1.362-.196-2.058a11.84 11.84 0 0 0-.529-1.939c-.221-.597-.468-1.082-.741-1.457h.886c.52.758.919 1.589 1.198 2.492.281.901.421 1.888.421 2.962Z" fill="#000"/><path stroke="#000" d="M345.113 179.731h109v59h-109z"/><path d="M434.306 234.07v-1.817l4.554-7.175h1.566v2.514h-.927l-2.871 4.544v.085h6.472v1.849h-8.794Zm5.236 1.917v-2.471l.042-.805v-7.633h2.163v10.909h-2.205Zm9.127.149c-.795 0-1.504-.136-2.125-.41-.618-.277-1.107-.657-1.465-1.14a2.866 2.866 0 0 1-.549-1.683h2.323c.014.266.101.501.261.703.163.199.38.354.649.464.27.11.574.165.911.165.352 0 .663-.062.932-.187.27-.124.482-.296.634-.516.153-.22.229-.474.229-.762a1.27 1.27 0 0 0-.245-.772 1.556 1.556 0 0 0-.692-.533c-.298-.128-.653-.192-1.065-.192h-1.018v-1.694h1.018c.348 0 .655-.06.921-.181.27-.121.479-.287.629-.501.149-.216.223-.468.223-.756 0-.273-.065-.513-.197-.719a1.3 1.3 0 0 0-.543-.49 1.77 1.77 0 0 0-.81-.176c-.312 0-.598.057-.857.171a1.5 1.5 0 0 0-.624.474 1.25 1.25 0 0 0-.25.724h-2.21c.01-.628.19-1.182.538-1.662a3.493 3.493 0 0 1 1.406-1.124c.593-.273 1.262-.41 2.008-.41.753 0 1.412.137 1.976.41.565.274 1.003.643 1.316 1.108.316.462.472.98.469 1.556.003.61-.187 1.12-.57 1.528-.38.409-.876.668-1.487.778v.085c.803.103 1.414.382 1.833.837.422.451.632 1.015.628 1.693a2.654 2.654 0 0 1-.538 1.657c-.358.483-.854.863-1.486 1.14-.632.277-1.356.415-2.173.415Zm-98.084-51.863V193h-1.057v-7.619h-.051l-2.131 1.415v-1.074l2.182-1.449h1.057Zm5.578 0V193h-1.057v-7.619h-.051l-2.131 1.415v-1.074l2.182-1.449h1.057Zm7.641 7.159-4.807-4.807.648-.647 4.806 4.806-.647.648Zm-4.159 0-.648-.648 4.807-4.806.647.647-4.806 4.807Zm9.836 1.688a3.268 3.268 0 0 1-1.074-.205 2.577 2.577 0 0 1-.98-.66c-.296-.313-.533-.735-.712-1.266-.179-.534-.268-1.205-.268-2.011 0-.773.072-1.458.217-2.054.145-.6.355-1.104.631-1.513a2.84 2.84 0 0 1 .997-.938 2.73 2.73 0 0 1 1.325-.319c.489 0 .923.098 1.304.294.384.193.696.463.938.809.241.347.397.746.468 1.198h-1.039a1.926 1.926 0 0 0-.563-.976c-.278-.259-.648-.388-1.108-.388-.676 0-1.209.294-1.598.882-.386.588-.581 1.414-.584 2.476h.069a2.55 2.55 0 0 1 2.147-1.159c.5 0 .958.125 1.372.375.415.247.748.59.998 1.027.25.435.375.933.375 1.496 0 .54-.121 1.034-.363 1.483a2.755 2.755 0 0 1-1.018 1.065c-.435.261-.946.389-1.534.384Zm0-.938c.358 0 .679-.089.963-.268.287-.179.513-.419.677-.721.168-.301.252-.636.252-1.005 0-.361-.081-.689-.243-.985a1.847 1.847 0 0 0-.661-.711 1.745 1.745 0 0 0-.954-.264c-.27 0-.521.053-.754.161-.233.106-.438.25-.614.435-.173.185-.31.396-.409.635a2.018 2.018 0 0 0 .767 2.446c.287.185.612.277.976.277Zm4.965-3.545c0-1.074.14-2.061.418-2.962a9.242 9.242 0 0 1 1.202-2.493h.886a5.514 5.514 0 0 0-.575 1.04c-.176.409-.331.859-.465 1.351-.133.488-.238.994-.315 1.517a11.015 11.015 0 0 0-.111 1.547c0 .676.065 1.362.196 2.058.131.696.307 1.342.529 1.939.221.596.468 1.082.741 1.457h-.886a9.24 9.24 0 0 1-1.202-2.488c-.278-.904-.418-1.893-.418-2.966Zm6.871 4.483a3.268 3.268 0 0 1-1.074-.205 2.577 2.577 0 0 1-.98-.66c-.296-.313-.533-.735-.712-1.266-.179-.534-.268-1.205-.268-2.011 0-.773.072-1.458.217-2.054.145-.6.355-1.104.631-1.513a2.84 2.84 0 0 1 .997-.938 2.73 2.73 0 0 1 1.325-.319c.489 0 .923.098 1.304.294.384.193.696.463.938.809.241.347.397.746.468 1.198h-1.039a1.933 1.933 0 0 0-.563-.976c-.278-.259-.648-.388-1.108-.388-.676 0-1.209.294-1.598.882-.386.588-.581 1.414-.584 2.476h.068a2.55 2.55 0 0 1 2.148-1.159c.5 0 .958.125 1.372.375.415.247.748.59.998 1.027.25.435.375.933.375 1.496 0 .54-.121 1.034-.363 1.483a2.755 2.755 0 0 1-1.018 1.065c-.435.261-.946.389-1.534.384Zm0-.938c.358 0 .679-.089.963-.268.287-.179.513-.419.677-.721.168-.301.252-.636.252-1.005 0-.361-.081-.689-.243-.985a1.847 1.847 0 0 0-.661-.711 1.745 1.745 0 0 0-.954-.264c-.27 0-.521.053-.754.161-.233.106-.438.25-.614.435-.173.185-.31.396-.409.635a2.018 2.018 0 0 0 .767 2.446c.287.185.612.277.976.277Zm7.488.938a3.268 3.268 0 0 1-1.074-.205 2.585 2.585 0 0 1-.98-.66c-.295-.313-.533-.735-.712-1.266-.179-.534-.268-1.205-.268-2.011 0-.773.072-1.458.217-2.054.145-.6.355-1.104.631-1.513.276-.412.608-.725.997-.938a2.73 2.73 0 0 1 1.325-.319c.489 0 .924.098 1.304.294.384.193.696.463.938.809.241.347.398.746.469 1.198h-1.04a1.926 1.926 0 0 0-.563-.976c-.278-.259-.647-.388-1.108-.388-.676 0-1.208.294-1.598.882-.386.588-.581 1.414-.583 2.476h.068a2.578 2.578 0 0 1 1.299-1.018 2.54 2.54 0 0 1 .848-.141c.5 0 .958.125 1.373.375.414.247.747.59.997 1.027.25.435.375.933.375 1.496 0 .54-.121 1.034-.362 1.483a2.758 2.758 0 0 1-1.019 1.065c-.435.261-.946.389-1.534.384Zm0-.938c.358 0 .679-.089.963-.268.287-.179.513-.419.678-.721.167-.301.251-.636.251-1.005 0-.361-.081-.689-.243-.985a1.852 1.852 0 0 0-.66-.711 1.751 1.751 0 0 0-.955-.264c-.27 0-.521.053-.754.161-.233.106-.438.25-.614.435a2.116 2.116 0 0 0-.409.635 2.018 2.018 0 0 0 .767 2.446c.287.185.612.277.976.277Zm6.755-3.545c0 1.073-.14 2.062-.422 2.966-.278.9-.677 1.73-1.197 2.488h-.886c.204-.281.395-.628.571-1.04.179-.409.335-.858.468-1.346.134-.492.238-.999.312-1.522.076-.525.115-1.041.115-1.546 0-.677-.066-1.363-.196-2.059a11.84 11.84 0 0 0-.529-1.939c-.221-.596-.469-1.082-.741-1.457h.886c.52.759.919 1.59 1.197 2.493.282.901.422 1.888.422 2.962Z" fill="#000"/><path stroke="#000" d="M226.113 179.5h119v59h-119z"/><path d="M324.166 233.502v-1.817l4.555-7.175h1.566v2.515h-.927l-2.871 4.543v.085h6.472v1.849h-8.795Zm5.237 1.917v-2.471l.042-.804v-7.634h2.163v10.909h-2.205Zm4.929-1.917v-1.817l4.555-7.175h1.566v2.515h-.927l-2.871 4.543v.085h6.472v1.849h-8.795Zm5.237 1.917v-2.471l.042-.804v-7.634h2.163v10.909h-2.205Zm-108.952-52.69v8.727h-1.056v-7.619h-.052l-2.13 1.415v-1.074l2.182-1.449h1.056Zm2.51 8.727v-.767l2.881-3.153c.338-.37.616-.691.835-.963.219-.276.381-.535.486-.776.108-.244.162-.5.162-.767a1.413 1.413 0 0 0-.818-1.317 1.938 1.938 0 0 0-.853-.183c-.335 0-.627.07-.877.209a1.436 1.436 0 0 0-.576.575c-.133.247-.2.537-.2.869h-1.006c0-.511.118-.96.354-1.346.236-.387.557-.688.963-.904a2.903 2.903 0 0 1 1.377-.324c.511 0 .964.108 1.359.324.395.216.704.507.929.874.224.366.337.774.337 1.223 0 .321-.059.635-.175.942-.114.304-.313.643-.597 1.018-.281.372-.672.827-1.172 1.364l-1.96 2.096v.069h4.057v.937h-5.506Zm12.397-1.568-4.807-4.807.648-.648 4.806 4.807-.647.648Zm-4.159 0-.648-.648 4.807-4.807.647.648-4.806 4.807Zm9.836 1.687a3.24 3.24 0 0 1-1.074-.204 2.569 2.569 0 0 1-.98-.661c-.296-.312-.533-.734-.712-1.265-.179-.534-.268-1.205-.268-2.012 0-.772.072-1.457.217-2.054.145-.599.355-1.103.631-1.512a2.84 2.84 0 0 1 .997-.938 2.73 2.73 0 0 1 1.325-.32c.489 0 .923.098 1.304.294.384.194.696.464.938.81.241.347.397.746.468 1.198h-1.039a1.926 1.926 0 0 0-.563-.976c-.278-.259-.648-.388-1.108-.388-.676 0-1.209.294-1.598.882-.386.588-.581 1.413-.584 2.476h.069a2.558 2.558 0 0 1 1.299-1.019c.267-.093.55-.14.848-.14.5 0 .958.125 1.372.375.415.247.748.589.998 1.027.25.434.375.933.375 1.496 0 .539-.121 1.034-.363 1.483a2.755 2.755 0 0 1-1.018 1.065c-.435.261-.946.389-1.534.383Zm0-.937c.358 0 .679-.09.963-.269.287-.179.513-.419.677-.72.168-.301.252-.636.252-1.005 0-.361-.081-.689-.243-.985a1.847 1.847 0 0 0-.661-.711 1.738 1.738 0 0 0-.954-.265c-.27 0-.521.054-.754.162a1.94 1.94 0 0 0-.614.435c-.173.185-.31.396-.409.635a2.018 2.018 0 0 0 .767 2.446c.287.185.612.277.976.277Zm4.965-3.546c0-1.073.14-2.061.418-2.961a9.213 9.213 0 0 1 1.202-2.493h.886a5.459 5.459 0 0 0-.575 1.04c-.176.409-.331.859-.465 1.35-.133.489-.238.995-.315 1.518a11.012 11.012 0 0 0-.111 1.546c0 .677.065 1.363.196 2.059.131.696.307 1.342.529 1.939.221.596.468 1.082.741 1.457h-.886a9.246 9.246 0 0 1-1.202-2.489c-.278-.903-.418-1.892-.418-2.966Zm4.246 4.364 3.903-7.722v-.068h-4.5v-.937h5.591v.988l-3.886 7.739h-1.108Zm6.582 0v-.767l2.881-3.153c.338-.37.617-.691.835-.963.219-.276.381-.535.486-.776.108-.244.162-.5.162-.767a1.42 1.42 0 0 0-.221-.797 1.44 1.44 0 0 0-.597-.52 1.936 1.936 0 0 0-.852-.183c-.336 0-.628.07-.878.209a1.434 1.434 0 0 0-.575.575 1.796 1.796 0 0 0-.201.869h-1.005c0-.511.117-.96.353-1.346.236-.387.557-.688.963-.904a2.903 2.903 0 0 1 1.377-.324c.511 0 .964.108 1.359.324.395.216.705.507.929.874.225.366.337.774.337 1.223 0 .321-.058.635-.175.942-.114.304-.312.643-.597 1.018-.281.372-.671.827-1.171 1.364l-1.961 2.096v.069h4.057v.937h-5.506Zm9.431-4.364c0 1.074-.141 2.063-.422 2.966a9.174 9.174 0 0 1-1.197 2.489h-.887c.205-.281.395-.628.571-1.04.179-.409.335-.858.469-1.346.133-.492.237-.999.311-1.522a10.654 10.654 0 0 0-.081-3.605 11.942 11.942 0 0 0-.528-1.939c-.222-.596-.469-1.082-.742-1.457h.887a9.142 9.142 0 0 1 1.197 2.493c.281.9.422 1.888.422 2.961Z" fill="#000"/><path stroke="#000" d="M48.5 220.201h131.198v49.286H48.5z"/><path d="M158.915 264.082v-1.816l4.554-7.175h1.567v2.514h-.927l-2.871 4.544v.085h6.472v1.848h-8.795Zm5.236 1.918v-2.472l.043-.804v-7.633h2.163V266h-2.206Zm9.08.149c-.753 0-1.424-.138-2.014-.415a3.497 3.497 0 0 1-1.395-1.146 2.934 2.934 0 0 1-.538-1.672h2.237c.025.422.202.765.532 1.028.331.263.723.394 1.178.394.362 0 .681-.08.958-.24.281-.163.499-.388.656-.676.159-.291.239-.625.239-1.002 0-.383-.081-.72-.245-1.012a1.718 1.718 0 0 0-.666-.681 1.957 1.957 0 0 0-.974-.251c-.32 0-.631.066-.932.197a1.688 1.688 0 0 0-.698.538l-2.051-.367.517-5.753h6.669v1.886h-4.768l-.282 2.732h.064c.192-.27.481-.493.868-.671.387-.178.82-.266 1.3-.266.657 0 1.243.154 1.758.463a3.33 3.33 0 0 1 1.219 1.273c.299.536.446 1.154.443 1.854.003.735-.167 1.388-.512 1.96a3.598 3.598 0 0 1-1.433 1.342c-.61.324-1.321.485-2.13.485Zm-119.21-42.244v8.727h-1.057v-7.619h-.05l-2.132 1.414v-1.073l2.182-1.449h1.057Zm5.459 8.846c-.563 0-1.064-.096-1.504-.289a2.583 2.583 0 0 1-1.044-.806 2.162 2.162 0 0 1-.418-1.206h1.074c.023.281.12.524.29.729.17.202.393.358.669.469.275.11.58.166.916.166.375 0 .707-.066.997-.196.29-.131.517-.313.682-.546.165-.233.247-.503.247-.809 0-.321-.08-.604-.239-.848a1.574 1.574 0 0 0-.698-.58c-.307-.139-.682-.209-1.125-.209h-.7v-.937h.7c.346 0 .65-.063.912-.188a1.416 1.416 0 0 0 .844-1.329c0-.296-.066-.553-.197-.772a1.344 1.344 0 0 0-.554-.511 1.795 1.795 0 0 0-.835-.183c-.301 0-.585.055-.852.166a1.59 1.59 0 0 0-.648.473 1.234 1.234 0 0 0-.273.742h-1.022c.017-.458.154-.858.413-1.202a2.598 2.598 0 0 1 1.014-.81 3.28 3.28 0 0 1 1.385-.29c.54 0 1.003.11 1.39.328.386.216.682.502.89.857.207.355.311.739.311 1.151 0 .491-.13.91-.388 1.257a1.97 1.97 0 0 1-1.044.72v.068c.551.091.982.325 1.291.703.31.375.465.84.465 1.394 0 .474-.13.9-.388 1.278a2.626 2.626 0 0 1-1.048.886c-.443.216-.948.324-1.513.324Zm9.822-1.687-4.806-4.807.647-.648 4.807 4.807-.648.648Zm-4.159 0-.647-.648 4.806-4.807.648.648-4.807 4.807Zm9.666 1.687c-.5 0-.95-.099-1.35-.298a2.515 2.515 0 0 1-.964-.818 2.232 2.232 0 0 1-.396-1.185h1.023a1.4 1.4 0 0 0 .537.98c.32.256.704.384 1.15.384.358 0 .676-.084.955-.252.28-.167.501-.397.66-.69.162-.295.243-.629.243-1.001a2.05 2.05 0 0 0-.251-1.019 1.853 1.853 0 0 0-.682-.712 1.93 1.93 0 0 0-.993-.264 2.73 2.73 0 0 0-.823.124 2.294 2.294 0 0 0-.694.319l-.989-.119.529-4.295h4.534v.937H73.65l-.307 2.574h.051a2.566 2.566 0 0 1 1.517-.494 2.684 2.684 0 0 1 2.417 1.423c.241.44.362.943.362 1.509 0 .556-.125 1.054-.375 1.491a2.739 2.739 0 0 1-1.023 1.031 2.92 2.92 0 0 1-1.483.375Zm4.949-4.483c0-1.074.139-2.061.417-2.961a9.221 9.221 0 0 1 1.202-2.493h.886a5.48 5.48 0 0 0-.575 1.04c-.176.409-.33.859-.464 1.35a12.83 12.83 0 0 0-.316 1.517c-.074.523-.11 1.039-.11 1.547 0 .676.065 1.363.195 2.059a11.8 11.8 0 0 0 .529 1.938c.221.597.469 1.083.741 1.458h-.886a9.254 9.254 0 0 1-1.202-2.489c-.278-.903-.417-1.892-.417-2.966Zm6.87 4.483a3.265 3.265 0 0 1-1.074-.204 2.572 2.572 0 0 1-.98-.661c-.295-.312-.533-.734-.712-1.265-.179-.534-.268-1.205-.268-2.012 0-.772.072-1.457.217-2.054.145-.599.355-1.103.631-1.513.276-.411.608-.724.997-.937a2.73 2.73 0 0 1 1.325-.32c.489 0 .924.098 1.304.294.384.194.696.463.938.81.241.347.398.746.469 1.198h-1.04a1.922 1.922 0 0 0-.563-.976c-.278-.259-.647-.388-1.108-.388-.676 0-1.208.294-1.598.882-.386.588-.58 1.413-.583 2.476h.068a2.548 2.548 0 0 1 2.148-1.159c.5 0 .957.125 1.372.375.414.247.747.589.997 1.027.25.434.375.933.375 1.495 0 .54-.12 1.035-.362 1.483a2.76 2.76 0 0 1-1.019 1.066c-.434.261-.946.389-1.534.383Zm0-.937c.358 0 .679-.09.963-.269.287-.179.513-.419.678-.72.167-.301.251-.636.251-1.006 0-.36-.08-.688-.243-.984a1.862 1.862 0 0 0-.66-.712 1.748 1.748 0 0 0-.955-.264c-.27 0-.521.054-.754.162a1.94 1.94 0 0 0-.614.435c-.173.184-.31.396-.409.635a2.02 2.02 0 0 0 .767 2.446c.287.184.612.277.976.277Zm7.318.937c-.5 0-.95-.099-1.351-.298a2.515 2.515 0 0 1-.963-.818 2.233 2.233 0 0 1-.396-1.185h1.022a1.4 1.4 0 0 0 .537.98c.321.256.705.384 1.15.384.359 0 .677-.084.955-.252.282-.167.502-.397.66-.69.163-.295.244-.629.244-1.001a2.04 2.04 0 0 0-.252-1.019 1.852 1.852 0 0 0-.681-.712 1.93 1.93 0 0 0-.993-.264 2.73 2.73 0 0 0-.823.124 2.295 2.295 0 0 0-.694.319l-.989-.119.528-4.295h4.534v.937h-3.647l-.307 2.574h.051c.18-.142.403-.26.673-.354.27-.093.552-.14.844-.14a2.684 2.684 0 0 1 2.416 1.423c.242.44.362.943.362 1.509a2.95 2.95 0 0 1-.374 1.491 2.739 2.739 0 0 1-1.023 1.031 2.92 2.92 0 0 1-1.483.375Zm6.738-4.483c0 1.074-.14 2.063-.422 2.966a9.151 9.151 0 0 1-1.197 2.489h-.886a5.33 5.33 0 0 0 .57-1.04c.18-.409.336-.858.47-1.346.133-.492.237-.999.31-1.522a10.697 10.697 0 0 0-.08-3.605 11.85 11.85 0 0 0-.53-1.939c-.22-.596-.468-1.082-.74-1.457h.886a9.12 9.12 0 0 1 1.197 2.493c.282.9.422 1.887.422 2.961Z" fill="#000"/><path stroke="#000" d="M48.5 129.872h129v59h-129z"/><path d="M155.298 183.082v-1.816l4.554-7.175h1.566v2.514h-.927l-2.871 4.544v.085h6.472v1.848h-8.794Zm5.236 1.918v-2.472l.043-.804v-7.633h2.162V185h-2.205Zm9.282.149a4.936 4.936 0 0 1-1.625-.282 3.71 3.71 0 0 1-1.395-.9c-.412-.416-.739-.966-.98-1.652-.238-.685-.357-1.527-.357-2.525.003-.916.108-1.734.314-2.455.209-.725.508-1.339.895-1.843.39-.504.857-.888 1.401-1.151.543-.266 1.152-.399 1.827-.399.728 0 1.371.142 1.928.426a3.538 3.538 0 0 1 1.96 2.77h-2.274a1.517 1.517 0 0 0-.56-.895c-.284-.217-.635-.325-1.054-.325-.71 0-1.25.309-1.62.927-.365.618-.552 1.458-.559 2.519h.075c.163-.323.383-.598.66-.825.281-.231.599-.407.954-.528a3.444 3.444 0 0 1 1.134-.186c.647 0 1.222.153 1.726.458a3.25 3.25 0 0 1 1.193 1.246c.292.53.437 1.135.437 1.817 0 .739-.172 1.395-.517 1.971a3.58 3.58 0 0 1-1.432 1.353c-.611.323-1.321.483-2.131.479Zm-.011-1.811a1.798 1.798 0 0 0 1.614-.948 2 2 0 0 0 .24-.98c0-.362-.08-.687-.24-.975a1.796 1.796 0 0 0-.65-.687 1.767 1.767 0 0 0-.948-.256c-.266 0-.513.05-.74.149-.224.1-.421.238-.591.416a1.986 1.986 0 0 0-.538 1.358c0 .352.079.673.239.964.164.291.384.524.661.698.28.174.598.261.953.261ZM53.987 133.756v8.727H52.93v-7.619h-.051l-2.13 1.414v-1.073l2.181-1.449h1.057Zm5.459 8.846c-.563 0-1.064-.096-1.505-.29a2.572 2.572 0 0 1-1.044-.805 2.167 2.167 0 0 1-.417-1.206h1.074c.023.281.12.524.29.729.17.201.393.358.669.469.275.11.58.166.916.166.375 0 .707-.066.997-.196a1.64 1.64 0 0 0 .682-.546c.165-.233.247-.503.247-.809 0-.321-.08-.604-.239-.848a1.574 1.574 0 0 0-.699-.58c-.306-.139-.681-.209-1.125-.209h-.699v-.937h.7c.346 0 .65-.063.911-.188a1.415 1.415 0 0 0 .844-1.329c0-.296-.065-.553-.196-.772a1.344 1.344 0 0 0-.554-.511 1.795 1.795 0 0 0-.835-.183c-.301 0-.585.055-.852.166a1.59 1.59 0 0 0-.648.473 1.233 1.233 0 0 0-.273.741h-1.023c.017-.457.155-.857.414-1.201a2.598 2.598 0 0 1 1.014-.81 3.28 3.28 0 0 1 1.385-.29c.54 0 1.003.11 1.39.328.385.216.682.502.89.857.207.355.31.739.31 1.151 0 .491-.129.91-.387 1.257a1.971 1.971 0 0 1-1.044.72v.068c.551.091.981.325 1.291.703.31.375.465.84.465 1.394 0 .474-.13.9-.388 1.278-.256.375-.605.67-1.048.886-.444.216-.948.324-1.513.324Zm9.822-1.687-4.807-4.807.648-.648 4.807 4.807-.648.648Zm-4.159 0-.648-.648 4.807-4.807.648.648-4.807 4.807Zm9.836 1.687a3.265 3.265 0 0 1-1.073-.204 2.573 2.573 0 0 1-.98-.661c-.296-.312-.533-.734-.712-1.265-.18-.535-.269-1.205-.269-2.012 0-.773.073-1.457.218-2.054.144-.599.355-1.103.63-1.513a2.84 2.84 0 0 1 .998-.937 2.73 2.73 0 0 1 1.325-.32c.488 0 .923.098 1.304.294.383.194.696.463.937.81.242.347.398.746.469 1.197h-1.04a1.922 1.922 0 0 0-.562-.975c-.279-.259-.648-.388-1.108-.388-.676 0-1.209.294-1.598.882-.387.588-.581 1.413-.584 2.476h.068a2.546 2.546 0 0 1 2.148-1.159c.5 0 .957.125 1.372.375.415.247.747.589.997 1.027.25.434.375.933.375 1.495 0 .54-.12 1.035-.362 1.483a2.76 2.76 0 0 1-1.019 1.066c-.434.261-.945.389-1.534.383Zm0-.937c.358 0 .68-.09.964-.269a1.92 1.92 0 0 0 .677-.72 2.03 2.03 0 0 0 .252-1.006c0-.36-.081-.689-.243-.984a1.862 1.862 0 0 0-.66-.712 1.748 1.748 0 0 0-.956-.264c-.27 0-.52.054-.754.162a1.94 1.94 0 0 0-.613.435c-.174.184-.31.396-.41.635a2.02 2.02 0 0 0 .767 2.446c.288.184.613.277.976.277Zm4.966-3.546c0-1.074.14-2.061.418-2.961a9.221 9.221 0 0 1 1.201-2.493h.887a5.48 5.48 0 0 0-.576 1.04c-.176.409-.33.859-.464 1.35a12.87 12.87 0 0 0-.316 1.517c-.073.523-.11 1.039-.11 1.547 0 .676.065 1.362.196 2.059.13.696.307 1.342.528 1.938.222.597.469 1.083.742 1.458h-.887a9.254 9.254 0 0 1-1.201-2.489c-.279-.903-.418-1.892-.418-2.966Zm4.245 4.364 3.904-7.722v-.068h-4.5v-.937h5.59v.988l-3.886 7.739h-1.108Zm9.203.119c-.585 0-1.102-.103-1.551-.311a2.536 2.536 0 0 1-1.044-.865 2.172 2.172 0 0 1-.371-1.261 2.32 2.32 0 0 1 .822-1.811 1.86 1.86 0 0 1 .865-.405v-.051a1.688 1.688 0 0 1-.997-.703 2.13 2.13 0 0 1-.366-1.24c-.003-.444.11-.84.336-1.189.228-.35.54-.625.938-.827.4-.202.856-.303 1.368-.303.506 0 .957.101 1.355.303.398.202.71.477.937.827.23.349.347.745.35 1.189-.003.463-.13.876-.38 1.24-.247.36-.575.595-.984.703v.051c.316.057.6.192.853.405a2.37 2.37 0 0 1 .835 1.811 2.204 2.204 0 0 1-.384 1.261c-.25.367-.598.655-1.044.865-.443.208-.956.311-1.538.311Zm0-.937c.395 0 .736-.064 1.023-.192.286-.128.508-.308.664-.541a1.46 1.46 0 0 0 .239-.818 1.57 1.57 0 0 0-.256-.874 1.735 1.735 0 0 0-.686-.597 2.166 2.166 0 0 0-.984-.217 2.23 2.23 0 0 0-.997.217 1.73 1.73 0 0 0-.686.597 1.54 1.54 0 0 0-.243.874 1.43 1.43 0 0 0 .225.818c.157.233.38.413.67.541.29.128.633.192 1.03.192Zm0-4.142c.312 0 .59-.063.83-.188.245-.125.437-.3.576-.524.14-.224.21-.487.213-.788a1.456 1.456 0 0 0-.209-.772 1.356 1.356 0 0 0-.567-.511 1.848 1.848 0 0 0-.843-.183c-.327 0-.612.061-.857.183a1.32 1.32 0 0 0-.566.511 1.425 1.425 0 0 0-.197.772 1.47 1.47 0 0 0 .2.788c.14.224.332.399.576.524.244.125.526.188.844.188Zm6.764.596c0 1.074-.141 2.063-.422 2.966a9.164 9.164 0 0 1-1.198 2.489h-.886a5.33 5.33 0 0 0 .571-1.04c.179-.409.335-.858.469-1.347.133-.491.237-.998.31-1.521a10.697 10.697 0 0 0-.08-3.605 11.85 11.85 0 0 0-.529-1.939c-.221-.596-.468-1.082-.741-1.457h.886c.52.758.92 1.589 1.198 2.493.281.9.422 1.887.422 2.961Z" fill="#000"/><path stroke="#000" d="M226.113 129.5h119v49h-119z"/><path d="M323.95 173.711v-1.817l4.554-7.175h1.566v2.515h-.926l-2.871 4.543v.085h6.471v1.849h-8.794Zm5.236 1.917v-2.471l.043-.805v-7.633h2.162v10.909h-2.205Zm5.527 0 4.522-8.948v-.075h-5.268v-1.886h7.654v1.913l-4.527 8.996h-2.381Zm-103.741-42.355V142h-1.057v-7.619h-.051l-2.131 1.414v-1.073l2.182-1.449h1.057Zm2.51 8.727v-.767l2.88-3.153c.338-.37.617-.691.835-.964.219-.275.381-.534.486-.775.108-.244.162-.5.162-.767a1.42 1.42 0 0 0-.221-.797 1.44 1.44 0 0 0-.597-.52 1.936 1.936 0 0 0-.852-.183c-.336 0-.628.069-.878.209a1.434 1.434 0 0 0-.575.575 1.796 1.796 0 0 0-.201.869h-1.005c0-.511.118-.96.353-1.346.236-.387.557-.688.963-.904a2.903 2.903 0 0 1 1.377-.324c.511 0 .964.108 1.359.324.395.216.705.507.929.874.225.366.337.774.337 1.223 0 .321-.058.635-.175.942-.114.304-.312.643-.597 1.018-.281.372-.671.827-1.171 1.364l-1.961 2.096v.068h4.057V142h-5.505Zm12.396-1.568-4.807-4.807.648-.648 4.807 4.807-.648.648Zm-4.159 0-.648-.648 4.807-4.807.648.648-4.807 4.807Zm9.666 1.687c-.5 0-.951-.099-1.351-.298a2.508 2.508 0 0 1-.963-.818 2.23 2.23 0 0 1-.397-1.185h1.023c.04.395.219.722.537.98a1.79 1.79 0 0 0 1.151.384c.358 0 .676-.084.954-.252a1.77 1.77 0 0 0 .661-.69c.162-.295.243-.629.243-1.001a2.04 2.04 0 0 0-.252-1.019 1.843 1.843 0 0 0-.682-.711 1.918 1.918 0 0 0-.993-.265 2.727 2.727 0 0 0-.822.124 2.277 2.277 0 0 0-.695.32l-.988-.12.528-4.295h4.534v.937h-3.648l-.306 2.574h.051a2.28 2.28 0 0 1 .673-.354c.27-.093.551-.14.844-.14a2.681 2.681 0 0 1 2.416 1.423c.242.44.362.943.362 1.509 0 .556-.125 1.054-.375 1.491a2.741 2.741 0 0 1-1.022 1.031c-.435.25-.929.375-1.483.375Zm4.948-4.483c0-1.074.139-2.061.418-2.961a9.24 9.24 0 0 1 1.201-2.493h.887a5.458 5.458 0 0 0-.576 1.04c-.176.409-.33.859-.464 1.35-.134.489-.239.995-.315 1.517a11.036 11.036 0 0 0-.111 1.547c0 .676.065 1.363.196 2.059.131.696.307 1.342.528 1.939.222.596.469 1.082.742 1.457h-.887a9.273 9.273 0 0 1-1.201-2.489c-.279-.903-.418-1.892-.418-2.966Zm6.87 4.483a3.265 3.265 0 0 1-1.073-.204 2.569 2.569 0 0 1-.98-.661c-.296-.312-.533-.734-.712-1.265-.179-.534-.269-1.205-.269-2.012 0-.772.073-1.457.218-2.054.145-.599.355-1.103.63-1.512.276-.412.608-.725.998-.938.392-.213.833-.32 1.325-.32.488 0 .923.098 1.304.294a2.5 2.5 0 0 1 .937.81c.242.347.398.746.469 1.198h-1.04a1.92 1.92 0 0 0-.562-.976c-.279-.259-.648-.388-1.108-.388-.676 0-1.209.294-1.598.882-.387.588-.581 1.413-.584 2.476h.068a2.577 2.577 0 0 1 1.3-1.019c.267-.093.55-.14.848-.14.5 0 .957.125 1.372.375.415.247.747.589.997 1.027.25.434.375.933.375 1.496a3.07 3.07 0 0 1-.362 1.482 2.758 2.758 0 0 1-1.018 1.066c-.435.261-.946.389-1.535.383Zm0-.937c.358 0 .679-.09.964-.269.286-.179.512-.419.677-.72.168-.301.252-.636.252-1.005 0-.361-.081-.689-.243-.985a1.864 1.864 0 0 0-.661-.712 1.745 1.745 0 0 0-.954-.264c-.27 0-.522.054-.755.162-.233.105-.437.25-.613.435-.174.185-.31.396-.409.635-.1.236-.15.484-.15.746a2.018 2.018 0 0 0 .917 1.7c.287.184.612.277.975.277Zm7.438.937c-.642 0-1.189-.174-1.641-.524-.452-.352-.797-.862-1.036-1.53-.238-.67-.357-1.48-.357-2.429 0-.943.119-1.748.357-2.416.242-.67.589-1.182 1.04-1.534.455-.355 1-.533 1.637-.533.636 0 1.18.178 1.632.533.454.352.801.864 1.039 1.534.242.668.363 1.473.363 2.416 0 .949-.12 1.759-.358 2.429-.239.668-.584 1.178-1.036 1.53-.451.35-.998.524-1.64.524Zm0-.937c.636 0 1.13-.307 1.483-.921.352-.613.528-1.488.528-2.625 0-.755-.081-1.399-.243-1.93-.159-.531-.389-.936-.69-1.215a1.527 1.527 0 0 0-1.078-.417c-.631 0-1.124.311-1.479.933-.355.619-.533 1.496-.533 2.629 0 .756.08 1.398.239 1.926.159.529.388.931.686 1.206.301.276.663.414 1.087.414Zm6.818-3.546c0 1.074-.141 2.063-.422 2.966a9.147 9.147 0 0 1-1.198 2.489h-.886c.205-.281.395-.628.571-1.04.179-.409.335-.858.469-1.346.133-.492.237-.999.311-1.522a10.654 10.654 0 0 0-.081-3.605 11.942 11.942 0 0 0-.528-1.939c-.222-.596-.469-1.082-.742-1.457h.886c.52.758.92 1.589 1.198 2.493.281.9.422 1.887.422 2.961Z" fill="#000"/><path stroke="#000" d="M499.113 129.5h129v59h-129z"/><path d="M605.383 182.711v-1.817l4.555-7.175h1.566v2.515h-.927l-2.871 4.543v.085h6.472v1.849h-8.795Zm5.236 1.917v-2.471l.043-.805v-7.633h2.163v10.909h-2.206Zm9.042-11.058a4.72 4.72 0 0 1 1.62.282c.522.189.987.489 1.395.901.412.412.737.959.975 1.64.242.679.364 1.511.368 2.499 0 .926-.105 1.754-.315 2.482-.206.724-.502 1.34-.889 1.848a3.88 3.88 0 0 1-1.401 1.161 4.176 4.176 0 0 1-1.833.395c-.727 0-1.37-.141-1.928-.421a3.62 3.62 0 0 1-1.347-1.156 3.594 3.594 0 0 1-.613-1.651h2.275c.088.397.275.706.559.926.284.217.635.325 1.054.325.711 0 1.25-.309 1.62-.926.369-.622.556-1.472.559-2.552h-.074a2.62 2.62 0 0 1-.661.826 3.08 3.08 0 0 1-.953.527 3.425 3.425 0 0 1-1.135.186c-.643 0-1.216-.15-1.721-.452a3.252 3.252 0 0 1-1.193-1.247c-.291-.529-.437-1.133-.437-1.811-.003-.731.166-1.383.507-1.955a3.56 3.56 0 0 1 1.427-1.342c.614-.327 1.328-.488 2.141-.485Zm.016 1.811c-.358 0-.678.085-.958.256-.277.17-.498.399-.661.687-.16.288-.238.609-.234.964 0 .359.078.682.234.97.16.284.376.511.65.681a1.8 1.8 0 0 0 .948.251 1.832 1.832 0 0 0 1.332-.559c.17-.178.303-.382.399-.613a1.95 1.95 0 0 0-.101-1.683 1.875 1.875 0 0 0-.66-.693 1.765 1.765 0 0 0-.949-.261ZM504.6 133.384v8.727h-1.057v-7.619h-.051l-2.131 1.415v-1.074l2.182-1.449h1.057Zm5.459 8.846c-.563 0-1.064-.096-1.504-.289a2.576 2.576 0 0 1-1.044-.806 2.162 2.162 0 0 1-.418-1.206h1.074c.022.282.119.524.29.729.17.202.393.358.669.469.275.111.581.166.916.166.375 0 .707-.065.997-.196.29-.131.517-.313.682-.546.165-.233.247-.502.247-.809 0-.321-.08-.604-.239-.848a1.58 1.58 0 0 0-.699-.58c-.306-.139-.681-.209-1.125-.209h-.698v-.937h.698c.347 0 .651-.063.912-.188a1.412 1.412 0 0 0 .844-1.329c0-.296-.065-.553-.196-.771a1.34 1.34 0 0 0-.554-.512 1.795 1.795 0 0 0-.835-.183c-.301 0-.585.055-.852.166a1.583 1.583 0 0 0-.648.473 1.23 1.23 0 0 0-.273.742h-1.023c.017-.458.155-.858.414-1.202a2.59 2.59 0 0 1 1.014-.81c.42-.193.882-.29 1.385-.29.54 0 1.003.11 1.389.329.386.216.683.501.891.856.207.355.311.739.311 1.151 0 .491-.129.91-.388 1.257a1.973 1.973 0 0 1-1.044.72v.068c.551.091.982.325 1.291.703.31.375.465.84.465 1.394 0 .474-.13.9-.388 1.278a2.639 2.639 0 0 1-1.048.887c-.444.215-.948.323-1.513.323Zm9.822-1.687-4.807-4.807.648-.648 4.807 4.807-.648.648Zm-4.159 0-.648-.648 4.807-4.807.648.648-4.807 4.807Zm9.836 1.687a3.24 3.24 0 0 1-1.073-.204 2.58 2.58 0 0 1-.981-.661c-.295-.312-.532-.734-.711-1.265-.179-.534-.269-1.205-.269-2.012 0-.772.073-1.457.218-2.054.145-.599.355-1.103.63-1.512.276-.412.608-.725.998-.938.392-.213.833-.32 1.325-.32.488 0 .923.099 1.304.295.383.193.696.463.937.809.242.347.398.746.469 1.198h-1.04a1.924 1.924 0 0 0-.562-.976c-.279-.259-.648-.388-1.108-.388-.676 0-1.209.294-1.598.882-.387.588-.581 1.413-.584 2.476h.068a2.56 2.56 0 0 1 1.3-1.019c.267-.093.55-.14.848-.14.5 0 .957.125 1.372.375.415.247.747.589.997 1.027.25.435.375.933.375 1.496 0 .539-.121 1.034-.362 1.483a2.755 2.755 0 0 1-1.018 1.065c-.435.261-.946.389-1.535.383Zm0-.937c.358 0 .679-.09.964-.269.286-.179.512-.419.677-.72.168-.301.252-.636.252-1.005 0-.361-.081-.689-.243-.985a1.854 1.854 0 0 0-.661-.711 1.738 1.738 0 0 0-.954-.265c-.27 0-.522.054-.755.162-.233.105-.437.25-.613.435-.174.185-.31.396-.409.635-.1.236-.15.484-.15.746a2.018 2.018 0 0 0 .917 1.7c.287.185.612.277.975.277Zm4.966-3.546c0-1.073.139-2.061.418-2.961a9.21 9.21 0 0 1 1.201-2.493h.887a5.458 5.458 0 0 0-.576 1.04c-.176.409-.331.859-.464 1.351-.134.488-.239.994-.315 1.517a11.012 11.012 0 0 0-.111 1.546c0 .677.065 1.363.196 2.059.13.696.307 1.342.528 1.939.222.596.469 1.082.742 1.457h-.887a9.244 9.244 0 0 1-1.201-2.489c-.279-.903-.418-1.892-.418-2.966Zm4.245 4.364 3.904-7.722v-.068h-4.5v-.937h5.591v.988l-3.887 7.739h-1.108Zm9.203.119c-.585 0-1.102-.103-1.551-.311a2.536 2.536 0 0 1-1.044-.865 2.172 2.172 0 0 1-.371-1.261c-.003-.369.07-.71.217-1.023.148-.315.35-.578.605-.788a1.86 1.86 0 0 1 .865-.405v-.051a1.685 1.685 0 0 1-.997-.703 2.13 2.13 0 0 1-.366-1.24c-.003-.444.109-.84.336-1.189.228-.35.54-.625.938-.827.4-.202.856-.303 1.368-.303.505 0 .957.101 1.355.303.398.202.71.477.937.827.231.349.347.745.35 1.189a2.163 2.163 0 0 1-.379 1.24 1.686 1.686 0 0 1-.985.703v.051c.316.057.6.192.852.405a2.382 2.382 0 0 1 .836 1.811 2.204 2.204 0 0 1-.384 1.261c-.25.367-.598.655-1.044.865-.443.208-.956.311-1.538.311Zm0-.937c.395 0 .736-.064 1.023-.192.286-.128.508-.308.664-.541.157-.233.236-.506.239-.818a1.569 1.569 0 0 0-.256-.874 1.72 1.72 0 0 0-.686-.596 2.153 2.153 0 0 0-.984-.218c-.372 0-.705.073-.997.218a1.72 1.72 0 0 0-.686.596 1.537 1.537 0 0 0-.243.874c-.003.312.072.585.226.818.156.233.379.413.669.541.289.128.633.192 1.031.192Zm0-4.142c.312 0 .589-.063.831-.188.244-.125.436-.299.575-.524.139-.224.21-.487.213-.788a1.447 1.447 0 0 0-.209-.771 1.356 1.356 0 0 0-.566-.512 1.85 1.85 0 0 0-.844-.183c-.327 0-.612.061-.857.183-.244.12-.433.29-.566.512a1.423 1.423 0 0 0-.197.771c-.002.301.064.564.201.788.139.225.331.399.575.524.244.125.526.188.844.188Zm6.764.596c0 1.074-.141 2.063-.422 2.966a9.177 9.177 0 0 1-1.198 2.489h-.886c.205-.281.395-.628.571-1.04.179-.409.335-.858.469-1.346.133-.492.237-.999.311-1.522a10.654 10.654 0 0 0-.081-3.605 11.84 11.84 0 0 0-.529-1.939c-.221-.596-.468-1.082-.741-1.457h.886c.52.758.919 1.589 1.198 2.493.281.9.422 1.888.422 2.961Z" fill="#000"/><path stroke="#000" d="M345.113 129.5h109v49h-109z"/><path d="M431.569 173.711v-1.817l4.555-7.175h1.566v2.515h-.927l-2.871 4.543v.085h6.472v1.849h-8.795Zm5.236 1.917v-2.471l.043-.805v-7.633h2.163v10.909h-2.206Zm9.165.15c-.82 0-1.55-.134-2.189-.4-.636-.27-1.135-.637-1.497-1.103a2.507 2.507 0 0 1-.543-1.582c0-.454.103-.871.308-1.251a2.78 2.78 0 0 1 .853-.954c.358-.256.76-.419 1.204-.49v-.074a2.37 2.37 0 0 1-1.417-.847 2.433 2.433 0 0 1-.544-1.572c0-.564.166-1.067.496-1.507.33-.444.783-.792 1.358-1.044.579-.256 1.236-.384 1.971-.384.735 0 1.39.128 1.966.384.578.255 1.033.605 1.363 1.049.33.44.497.941.501 1.502a2.436 2.436 0 0 1-.554 1.572 2.39 2.39 0 0 1-1.406.847v.074a2.76 2.76 0 0 1 1.187.49c.359.252.643.57.853.954a2.562 2.562 0 0 1-.224 2.833c-.362.466-.863.833-1.502 1.103-.636.266-1.364.4-2.184.4Zm0-1.694c.366 0 .685-.066.959-.197.273-.135.486-.32.639-.554.156-.238.234-.512.234-.821 0-.316-.08-.595-.239-.836a1.648 1.648 0 0 0-.65-.575 2.02 2.02 0 0 0-.943-.213c-.352 0-.666.071-.943.213-.277.138-.495.33-.655.575-.156.241-.234.52-.234.836 0 .309.076.583.229.821.152.234.367.419.644.554.277.131.597.197.959.197Zm0-4.874c.305 0 .577-.062.815-.187a1.4 1.4 0 0 0 .559-.516 1.43 1.43 0 0 0 .203-.762 1.365 1.365 0 0 0-.757-1.252 1.728 1.728 0 0 0-.82-.186c-.309 0-.582.062-.82.186-.238.121-.425.29-.56.506a1.396 1.396 0 0 0-.197.746c0 .288.068.541.203.762a1.4 1.4 0 0 0 .559.516c.238.125.51.187.815.187Zm-95.68-35.085v8.727h-1.056v-7.62h-.052l-2.13 1.415v-1.074l2.182-1.448h1.056Zm5.579 0v8.727h-1.057v-7.62h-.051l-2.131 1.415v-1.074l2.182-1.448h1.057Zm7.64 7.159-4.807-4.807.648-.648 4.807 4.807-.648.648Zm-4.159 0-.648-.648 4.807-4.807.648.648-4.807 4.807Zm9.666 1.687c-.5 0-.95-.099-1.351-.298a2.515 2.515 0 0 1-.963-.818 2.23 2.23 0 0 1-.396-1.185h1.022c.04.395.219.722.537.98a1.79 1.79 0 0 0 1.151.384c.358 0 .676-.084.954-.252.282-.167.502-.398.661-.69a2.05 2.05 0 0 0 .243-1.002c0-.38-.084-.72-.252-1.018a1.85 1.85 0 0 0-.681-.712 1.932 1.932 0 0 0-.993-.264 2.706 2.706 0 0 0-.823.124 2.294 2.294 0 0 0-.694.319l-.989-.119.528-4.295h4.535v.937h-3.648l-.307 2.574h.051c.179-.142.404-.26.673-.354.27-.094.552-.14.844-.14a2.678 2.678 0 0 1 2.416 1.423c.242.44.363.943.363 1.508 0 .557-.125 1.054-.375 1.492a2.744 2.744 0 0 1-1.023 1.031c-.435.25-.929.375-1.483.375Zm4.948-4.483c0-1.074.14-2.061.418-2.961a9.213 9.213 0 0 1 1.202-2.493h.886a5.503 5.503 0 0 0-.575 1.039c-.176.409-.331.86-.465 1.351-.133.489-.238.995-.315 1.517a11.036 11.036 0 0 0-.111 1.547c0 .676.066 1.362.196 2.058.131.696.307 1.343.529 1.939.221.597.468 1.083.741 1.458h-.886a9.246 9.246 0 0 1-1.202-2.489c-.278-.903-.418-1.892-.418-2.966Zm6.7 4.483c-.5 0-.95-.099-1.35-.298a2.518 2.518 0 0 1-.964-.818 2.238 2.238 0 0 1-.396-1.185h1.023c.04.395.219.722.537.98.321.256.704.384 1.15.384.358 0 .677-.084.955-.252.281-.167.501-.398.66-.69a2.05 2.05 0 0 0 .243-1.002c0-.38-.083-.72-.251-1.018a1.853 1.853 0 0 0-.682-.712 1.932 1.932 0 0 0-.993-.264 2.696 2.696 0 0 0-.822.124 2.29 2.29 0 0 0-.695.319l-.988-.119.528-4.295h4.534v.937h-3.648l-.307 2.574h.052a2.28 2.28 0 0 1 .673-.354c.27-.094.551-.14.844-.14a2.682 2.682 0 0 1 2.416 1.423c.241.44.362.943.362 1.508 0 .557-.125 1.054-.375 1.492a2.737 2.737 0 0 1-1.023 1.031c-.434.25-.929.375-1.483.375Zm7.301 0c-.5 0-.95-.099-1.351-.298a2.523 2.523 0 0 1-.963-.818 2.238 2.238 0 0 1-.396-1.185h1.023c.039.395.218.722.537.98.321.256.704.384 1.15.384.358 0 .676-.084.955-.252.281-.167.501-.398.66-.69a2.05 2.05 0 0 0 .243-1.002c0-.38-.084-.72-.251-1.018a1.853 1.853 0 0 0-.682-.712 1.932 1.932 0 0 0-.993-.264 2.696 2.696 0 0 0-.822.124 2.29 2.29 0 0 0-.695.319l-.989-.119.529-4.295h4.534v.937h-3.648l-.307 2.574h.051c.179-.142.404-.26.674-.354.27-.094.551-.14.843-.14a2.69 2.69 0 0 1 2.417 1.423c.241.44.362.943.362 1.508 0 .557-.125 1.054-.375 1.492a2.737 2.737 0 0 1-1.023 1.031c-.435.25-.929.375-1.483.375Zm6.738-4.483c0 1.074-.14 2.063-.421 2.966a9.177 9.177 0 0 1-1.198 2.489h-.886c.204-.282.395-.628.571-1.04.179-.409.335-.858.469-1.347.133-.491.237-.998.311-1.521.076-.526.115-1.041.115-1.547 0-.676-.066-1.362-.196-2.058a11.84 11.84 0 0 0-.529-1.939c-.221-.597-.469-1.082-.741-1.457h.886c.52.758.919 1.589 1.198 2.493.281.9.421 1.887.421 2.961Z" fill="#000"/><path stroke="#000" d="M479.141 49.786h119v49h-119z"/><path d="M582.484 97.15c-.753 0-1.424-.14-2.013-.416a3.51 3.51 0 0 1-1.396-1.146 2.944 2.944 0 0 1-.538-1.672h2.237c.025.422.203.765.533 1.028s.723.394 1.177.394c.363 0 .682-.08.959-.24a1.71 1.71 0 0 0 .655-.676c.16-.291.24-.625.24-1.001 0-.384-.082-.721-.245-1.013a1.734 1.734 0 0 0-.666-.681 1.96 1.96 0 0 0-.975-.25c-.319 0-.63.065-.932.196a1.695 1.695 0 0 0-.698.538l-2.05-.367.516-5.753h6.669v1.886h-4.767l-.282 2.732h.064c.191-.27.481-.493.868-.671a3.08 3.08 0 0 1 1.3-.266c.656 0 1.242.154 1.757.463.515.309.922.733 1.22 1.273.298.536.446 1.154.442 1.854.004.735-.167 1.388-.511 1.96a3.609 3.609 0 0 1-1.433 1.342c-.611.324-1.321.485-2.131.485Zm9.961.09c-.916-.004-1.704-.23-2.365-.677-.657-.447-1.163-1.095-1.518-1.944-.351-.849-.525-1.87-.522-3.063 0-1.19.176-2.203.527-3.041.356-.838.862-1.476 1.519-1.913.66-.44 1.447-.66 2.359-.66.913 0 1.698.22 2.355.66.66.44 1.168 1.08 1.523 1.918.355.834.531 1.847.527 3.036 0 1.197-.177 2.22-.532 3.068-.352.849-.856 1.497-1.513 1.945-.657.447-1.444.67-2.36.67Zm0-1.913c.625 0 1.124-.314 1.497-.942.373-.629.558-1.572.554-2.829 0-.827-.085-1.516-.256-2.067-.167-.55-.404-.964-.713-1.24a1.558 1.558 0 0 0-1.082-.416c-.621 0-1.118.31-1.491.932-.373.621-.561 1.552-.565 2.791 0 .838.084 1.538.251 2.099.17.557.41.976.719 1.257.309.277.671.415 1.086.415ZM484.459 53.485v8.727h-1.057v-7.62h-.051l-2.131 1.415v-1.073l2.182-1.45h1.057Zm2.51 8.727v-.767l2.881-3.154c.338-.369.616-.69.835-.963.218-.275.38-.534.486-.775.107-.244.161-.5.161-.767 0-.307-.073-.573-.221-.797a1.439 1.439 0 0 0-.597-.52 1.935 1.935 0 0 0-.852-.183c-.335 0-.628.07-.878.209a1.435 1.435 0 0 0-.575.575c-.134.247-.2.537-.2.87h-1.006c0-.512.118-.961.354-1.347.235-.387.556-.688.963-.904a2.903 2.903 0 0 1 1.376-.324c.511 0 .965.108 1.359.324.395.216.705.507.929.874.225.366.337.774.337 1.223 0 .32-.058.635-.175.941-.113.305-.312.644-.596 1.019-.281.372-.672.827-1.172 1.364l-1.96 2.096v.068h4.057v.938h-5.506Zm12.396-1.568-4.807-4.807.648-.648 4.807 4.807-.648.648Zm-4.159 0-.648-.648 4.807-4.807.648.648-4.807 4.807Zm9.666 1.687c-.5 0-.95-.1-1.351-.298a2.502 2.502 0 0 1-.963-.818 2.218 2.218 0 0 1-.396-1.185h1.022c.04.395.219.722.537.98a1.79 1.79 0 0 0 1.151.384c.358 0 .676-.084.954-.252a1.77 1.77 0 0 0 .661-.69c.162-.295.243-.63.243-1.001 0-.381-.084-.72-.252-1.019a1.843 1.843 0 0 0-.681-.712 1.928 1.928 0 0 0-.993-.264 2.737 2.737 0 0 0-.823.124 2.276 2.276 0 0 0-.694.32l-.989-.12.528-4.295h4.535v.937h-3.648l-.307 2.574h.051c.179-.142.404-.26.673-.354.27-.093.552-.14.844-.14a2.681 2.681 0 0 1 2.416 1.423c.242.44.363.943.363 1.509 0 .556-.125 1.053-.375 1.491a2.746 2.746 0 0 1-1.023 1.031c-.435.25-.929.375-1.483.375Zm4.948-4.483c0-1.074.14-2.06.418-2.961a9.23 9.23 0 0 1 1.202-2.493h.886a5.524 5.524 0 0 0-.575 1.04c-.176.409-.331.859-.465 1.35-.133.489-.238.995-.315 1.517a11.027 11.027 0 0 0-.111 1.547c0 .676.066 1.363.196 2.059a11.8 11.8 0 0 0 .529 1.938c.221.597.468 1.083.741 1.458h-.886a9.242 9.242 0 0 1-1.202-2.489c-.278-.903-.418-1.892-.418-2.966Zm6.871 4.483a3.264 3.264 0 0 1-1.074-.204 2.568 2.568 0 0 1-.98-.66c-.296-.313-.533-.735-.712-1.266-.179-.535-.268-1.205-.268-2.012 0-.773.072-1.457.217-2.054.145-.6.355-1.103.631-1.513a2.84 2.84 0 0 1 .997-.937 2.73 2.73 0 0 1 1.325-.32c.489 0 .923.098 1.304.294.384.194.696.463.938.81.241.347.397.746.468 1.197h-1.039a1.927 1.927 0 0 0-.563-.975c-.278-.259-.648-.388-1.108-.388-.676 0-1.209.294-1.598.882-.386.588-.581 1.413-.584 2.476h.069a2.574 2.574 0 0 1 1.299-1.019c.267-.093.55-.14.848-.14.5 0 .958.125 1.372.375.415.247.748.59.998 1.027.25.434.375.933.375 1.495 0 .54-.121 1.035-.363 1.483a2.758 2.758 0 0 1-1.018 1.066c-.435.261-.946.389-1.534.383Zm0-.937c.358 0 .679-.09.963-.269.287-.179.513-.419.677-.72.168-.301.252-.636.252-1.006 0-.36-.081-.688-.243-.984a1.847 1.847 0 0 0-.661-.712 1.745 1.745 0 0 0-.954-.264c-.27 0-.521.054-.754.162a1.94 1.94 0 0 0-.614.435c-.173.184-.31.396-.409.635a2.02 2.02 0 0 0 .767 2.446c.287.184.612.277.976.277Zm7.437.937c-.642 0-1.189-.175-1.641-.524-.451-.352-.797-.862-1.035-1.53-.239-.67-.358-1.48-.358-2.429 0-.943.119-1.748.358-2.416.241-.67.588-1.182 1.04-1.534.454-.355 1-.533 1.636-.533.636 0 1.18.178 1.632.533.455.352.801.864 1.04 1.534.241.668.362 1.473.362 2.416 0 .95-.119 1.759-.358 2.43-.239.667-.584 1.177-1.035 1.53-.452.349-.999.523-1.641.523Zm0-.937c.636 0 1.131-.307 1.483-.92.352-.614.528-1.49.528-2.626 0-.755-.081-1.399-.243-1.93-.159-.531-.389-.936-.69-1.215a1.524 1.524 0 0 0-1.078-.417c-.631 0-1.124.31-1.479.933-.355.62-.532 1.496-.532 2.63 0 .755.079 1.397.238 1.925.159.529.388.93.686 1.206.301.276.664.414 1.087.414Zm6.818-3.546c0 1.074-.141 2.063-.422 2.966-.278.9-.677 1.73-1.197 2.489h-.887c.205-.281.395-.628.571-1.04.179-.409.336-.858.469-1.346.134-.492.237-1 .311-1.522a10.662 10.662 0 0 0-.081-3.605 11.829 11.829 0 0 0-.528-1.939c-.222-.596-.469-1.082-.742-1.457h.887a9.13 9.13 0 0 1 1.197 2.493c.281.9.422 1.887.422 2.961Z" fill="#000"/><path stroke="#000" d="M359.608 49.786h119v49h-119z"/><path d="M463.478 97.15c-.752 0-1.424-.14-2.013-.416a3.51 3.51 0 0 1-1.396-1.146 2.951 2.951 0 0 1-.538-1.672h2.238c.024.422.202.765.532 1.028.331.263.723.394 1.177.394.363 0 .682-.08.959-.24a1.71 1.71 0 0 0 .655-.676c.16-.291.24-.625.24-1.001 0-.384-.082-.721-.245-1.013a1.734 1.734 0 0 0-.666-.681 1.958 1.958 0 0 0-.974-.25c-.32 0-.631.065-.933.196a1.685 1.685 0 0 0-.697.538l-2.051-.367.516-5.753h6.669v1.886h-4.767l-.282 2.732h.064c.191-.27.481-.493.868-.671a3.08 3.08 0 0 1 1.3-.266c.657 0 1.243.154 1.757.463.515.309.922.733 1.22 1.273.299.536.446 1.154.442 1.854.004.735-.167 1.388-.511 1.96a3.609 3.609 0 0 1-1.433 1.342c-.611.324-1.321.485-2.131.485Zm10.43-11.06V97h-2.306v-8.72h-.064l-2.498 1.566v-2.045l2.7-1.71h2.168ZM364.966 53.485v8.727h-1.057v-7.62h-.051l-2.13 1.415v-1.073l2.181-1.45h1.057Zm2.51 8.727v-.767l2.881-3.154c.338-.369.616-.69.835-.963.219-.275.381-.534.486-.775.108-.244.162-.5.162-.767 0-.307-.074-.573-.222-.797a1.442 1.442 0 0 0-.596-.52 1.936 1.936 0 0 0-.853-.183c-.335 0-.627.07-.877.209a1.437 1.437 0 0 0-.576.575c-.133.247-.2.537-.2.87h-1.006c0-.512.118-.961.354-1.347a2.46 2.46 0 0 1 .963-.904 2.903 2.903 0 0 1 1.376-.324c.512 0 .965.108 1.36.324.395.216.704.507.929.874.224.366.336.774.336 1.223 0 .32-.058.635-.174.941-.114.305-.313.644-.597 1.019-.281.372-.672.827-1.172 1.364l-1.96 2.096v.068h4.057v.938h-5.506Zm12.396-1.568-4.806-4.807.647-.648 4.807 4.807-.648.648Zm-4.159 0-.647-.648 4.806-4.807.648.648-4.807 4.807Zm9.666 1.687c-.5 0-.95-.1-1.351-.298a2.517 2.517 0 0 1-.963-.818 2.235 2.235 0 0 1-.396-1.185h1.023c.039.395.218.722.537.98.321.256.704.384 1.15.384.358 0 .676-.084.955-.252.281-.167.501-.397.66-.69.162-.295.243-.63.243-1.001 0-.381-.084-.72-.251-1.019a1.845 1.845 0 0 0-.682-.712 1.928 1.928 0 0 0-.993-.264 2.726 2.726 0 0 0-.822.124 2.282 2.282 0 0 0-.695.32l-.989-.12.529-4.295h4.534v.937h-3.648l-.307 2.574h.051c.179-.142.404-.26.674-.354.27-.093.551-.14.843-.14a2.682 2.682 0 0 1 2.417 1.423c.241.44.362.943.362 1.509 0 .556-.125 1.053-.375 1.491a2.738 2.738 0 0 1-1.023 1.031c-.434.25-.929.375-1.483.375Zm4.949-4.483c0-1.074.139-2.06.417-2.961a9.26 9.26 0 0 1 1.202-2.493h.886a5.524 5.524 0 0 0-.575 1.04c-.176.409-.331.859-.464 1.35a12.81 12.81 0 0 0-.316 1.517 11.027 11.027 0 0 0-.111 1.547c0 .676.066 1.363.197 2.059.13.696.306 1.342.528 1.938.222.597.469 1.083.741 1.458h-.886a9.272 9.272 0 0 1-1.202-2.489c-.278-.903-.417-1.892-.417-2.966Zm6.87 4.483a3.264 3.264 0 0 1-1.074-.204 2.576 2.576 0 0 1-.98-.66c-.295-.313-.533-.735-.712-1.266-.178-.535-.268-1.205-.268-2.012 0-.773.072-1.457.217-2.054.145-.6.355-1.103.631-1.513.276-.411.608-.724.997-.937a2.73 2.73 0 0 1 1.325-.32c.489 0 .924.098 1.304.294.384.194.696.463.938.81.241.347.398.746.469 1.197h-1.04a1.927 1.927 0 0 0-.563-.975c-.278-.259-.647-.388-1.108-.388-.676 0-1.208.294-1.598.882-.386.588-.581 1.413-.583 2.476h.068a2.557 2.557 0 0 1 2.148-1.16c.5 0 .957.126 1.372.376.414.247.747.59.997 1.027.25.434.375.933.375 1.495 0 .54-.121 1.035-.362 1.483a2.76 2.76 0 0 1-1.019 1.066c-.434.261-.946.389-1.534.383Zm0-.937c.358 0 .679-.09.963-.269.287-.179.513-.419.678-.72.167-.301.251-.636.251-1.006 0-.36-.081-.688-.243-.984a1.852 1.852 0 0 0-.66-.712 1.75 1.75 0 0 0-.955-.264c-.27 0-.521.054-.754.162a1.94 1.94 0 0 0-.614.435 2.115 2.115 0 0 0-.409.635 2.02 2.02 0 0 0 .767 2.446c.287.184.612.277.976.277Zm7.437.937c-.642 0-1.189-.175-1.64-.524-.452-.352-.797-.862-1.036-1.53-.239-.67-.358-1.48-.358-2.429 0-.943.119-1.748.358-2.416.242-.67.588-1.182 1.04-1.534.454-.355 1-.533 1.636-.533.637 0 1.181.178 1.632.533.455.352.801.864 1.04 1.534.242.668.362 1.473.362 2.416 0 .95-.119 1.759-.358 2.43-.238.667-.583 1.177-1.035 1.53-.452.349-.999.523-1.641.523Zm0-.937c.637 0 1.131-.307 1.483-.92.352-.614.529-1.49.529-2.626 0-.755-.081-1.399-.243-1.93-.159-.531-.389-.936-.691-1.215a1.522 1.522 0 0 0-1.078-.417c-.63 0-1.123.31-1.478.933-.356.62-.533 1.496-.533 2.63 0 .755.079 1.397.239 1.925.159.529.387.93.686 1.206a1.55 1.55 0 0 0 1.086.414Zm6.818-3.546c0 1.074-.14 2.063-.421 2.966a9.19 9.19 0 0 1-1.198 2.489h-.886c.204-.281.395-.628.571-1.04.179-.409.335-.858.469-1.346.133-.492.237-1 .311-1.522.076-.525.115-1.041.115-1.547 0-.676-.066-1.362-.196-2.058a11.828 11.828 0 0 0-.529-1.939c-.221-.596-.469-1.082-.741-1.457h.886a9.16 9.16 0 0 1 1.198 2.493c.281.9.421 1.887.421 2.961Z" fill="#000"/><path stroke="#000" d="M189.113 49.5h119v49h-119z"/><path d="M292.065 95.15c-.753 0-1.424-.14-2.014-.416a3.5 3.5 0 0 1-1.395-1.146 2.936 2.936 0 0 1-.538-1.672h2.237c.025.422.202.765.533 1.028.33.263.722.394 1.177.394.362 0 .682-.08.959-.24a1.71 1.71 0 0 0 .655-.676c.16-.291.24-.625.24-1.001 0-.384-.082-.721-.245-1.013a1.734 1.734 0 0 0-.666-.681 1.96 1.96 0 0 0-.975-.25c-.32 0-.63.065-.932.196a1.68 1.68 0 0 0-.698.538l-2.051-.367.517-5.753h6.669v1.886h-4.767l-.283 2.732h.064c.192-.27.481-.493.868-.671a3.083 3.083 0 0 1 1.3-.266c.657 0 1.243.154 1.758.463a3.34 3.34 0 0 1 1.22 1.273c.298.536.445 1.154.442 1.854.003.735-.167 1.388-.512 1.96a3.6 3.6 0 0 1-1.432 1.342c-.611.324-1.321.485-2.131.485Zm5.518-2.068v-1.816l4.555-7.175h1.566v2.514h-.927l-2.871 4.544v.085h6.472v1.848h-8.795ZM302.82 95v-2.472l.042-.804v-7.633h2.163V95h-2.205ZM194.458 53.199v8.727h-1.057v-7.62h-.051l-2.131 1.415v-1.074l2.182-1.448h1.057Zm2.51 8.727v-.767l2.881-3.154c.338-.369.616-.69.835-.963.219-.275.38-.534.486-.775.108-.245.161-.5.161-.767 0-.307-.073-.573-.221-.797a1.438 1.438 0 0 0-.597-.52 1.934 1.934 0 0 0-.852-.183c-.335 0-.628.07-.878.209a1.435 1.435 0 0 0-.575.575c-.134.247-.2.537-.2.87h-1.006c0-.512.118-.961.354-1.348a2.45 2.45 0 0 1 .963-.903 2.902 2.902 0 0 1 1.376-.324c.511 0 .965.108 1.36.324.394.216.704.507.928.874.225.366.337.774.337 1.223 0 .32-.058.635-.175.941-.113.304-.312.644-.596 1.019-.281.372-.672.827-1.172 1.364l-1.96 2.096v.068h4.057v.938h-5.506Zm12.396-1.568-4.807-4.807.648-.648 4.807 4.807-.648.648Zm-4.159 0-.648-.648 4.807-4.807.648.648-4.807 4.807Zm9.666 1.687c-.5 0-.95-.1-1.351-.298a2.502 2.502 0 0 1-.963-.818 2.227 2.227 0 0 1-.396-1.185h1.022c.04.395.219.722.537.98a1.79 1.79 0 0 0 1.151.384c.358 0 .676-.084.954-.252a1.77 1.77 0 0 0 .661-.69c.162-.296.243-.63.243-1.002 0-.38-.084-.72-.252-1.018a1.843 1.843 0 0 0-.681-.712 1.927 1.927 0 0 0-.993-.264 2.737 2.737 0 0 0-.823.124 2.287 2.287 0 0 0-.694.32l-.989-.12.528-4.295h4.535v.937h-3.648l-.307 2.574h.051c.179-.142.404-.26.673-.354.27-.094.552-.14.844-.14a2.681 2.681 0 0 1 2.416 1.423c.242.44.363.943.363 1.508 0 .557-.125 1.054-.375 1.492a2.745 2.745 0 0 1-1.023 1.031c-.435.25-.929.375-1.483.375Zm4.948-4.483c0-1.074.14-2.06.418-2.962a9.228 9.228 0 0 1 1.202-2.492h.886a5.518 5.518 0 0 0-.575 1.04c-.176.408-.331.859-.465 1.35-.133.489-.238.995-.315 1.517a11.025 11.025 0 0 0-.111 1.547c0 .676.066 1.362.196 2.058.131.696.307 1.343.529 1.94.221.596.468 1.082.741 1.457h-.886a9.244 9.244 0 0 1-1.202-2.489c-.278-.903-.418-1.892-.418-2.966Zm6.871 4.483a3.27 3.27 0 0 1-1.074-.204 2.568 2.568 0 0 1-.98-.661c-.296-.313-.533-.734-.712-1.266-.179-.534-.268-1.204-.268-2.01 0-.774.072-1.458.217-2.055.145-.6.355-1.104.631-1.513a2.84 2.84 0 0 1 .997-.937 2.73 2.73 0 0 1 1.325-.32c.489 0 .923.098 1.304.294.384.193.696.463.938.81.241.346.397.746.468 1.197h-1.039a1.927 1.927 0 0 0-.563-.976c-.278-.258-.648-.387-1.108-.387-.676 0-1.209.294-1.598.882-.386.588-.581 1.413-.584 2.476h.069a2.563 2.563 0 0 1 1.299-1.018c.267-.095.55-.141.848-.141.5 0 .958.125 1.372.375.415.247.748.589.998 1.026.25.435.375.934.375 1.496 0 .54-.121 1.034-.363 1.483a2.757 2.757 0 0 1-1.018 1.066c-.435.26-.946.389-1.534.383Zm0-.937c.358 0 .679-.09.963-.269.287-.179.513-.419.677-.72.168-.301.252-.636.252-1.006 0-.36-.081-.689-.243-.984a1.847 1.847 0 0 0-.661-.712 1.744 1.744 0 0 0-.954-.264c-.27 0-.521.054-.754.162a1.94 1.94 0 0 0-.614.435c-.173.184-.31.396-.409.635a2.02 2.02 0 0 0 .767 2.446c.287.184.612.277.976.277Zm7.437.937c-.642 0-1.189-.175-1.641-.524-.451-.352-.797-.862-1.035-1.53-.239-.67-.358-1.48-.358-2.429 0-.943.119-1.748.358-2.416.241-.67.588-1.182 1.04-1.534.454-.355 1-.533 1.636-.533.636 0 1.18.178 1.632.533.455.352.801.863 1.04 1.534.241.668.362 1.473.362 2.416 0 .949-.119 1.759-.358 2.43-.239.667-.584 1.177-1.035 1.529-.452.35-.999.524-1.641.524Zm0-.937c.636 0 1.131-.307 1.483-.92.352-.614.528-1.49.528-2.626 0-.755-.081-1.399-.243-1.93-.159-.532-.389-.936-.69-1.215a1.524 1.524 0 0 0-1.078-.417c-.631 0-1.124.31-1.479.933-.355.62-.532 1.496-.532 2.63 0 .755.079 1.397.238 1.925.159.529.388.93.686 1.206.301.276.664.414 1.087.414Zm6.818-3.546c0 1.074-.14 2.063-.422 2.966-.278.9-.677 1.73-1.197 2.489h-.887c.205-.282.395-.628.571-1.04.179-.41.336-.858.469-1.347.134-.491.237-.998.311-1.521a10.66 10.66 0 0 0-.081-3.605 11.73 11.73 0 0 0-.528-1.939c-.222-.597-.469-1.082-.742-1.457h.887c.52.758.919 1.59 1.197 2.492.282.901.422 1.888.422 2.962Z" fill="#000"/><path stroke="#000" d="M69.274 49.786h119v49h-119z"/><path d="M170.704 97.15c-.753 0-1.424-.14-2.013-.416a3.503 3.503 0 0 1-1.396-1.146 2.944 2.944 0 0 1-.538-1.672h2.237c.025.422.203.765.533 1.028s.723.394 1.177.394c.362 0 .682-.08.959-.24a1.71 1.71 0 0 0 .655-.676c.16-.291.24-.625.24-1.001 0-.384-.082-.721-.245-1.013a1.734 1.734 0 0 0-.666-.681 1.96 1.96 0 0 0-.975-.25c-.32 0-.63.065-.932.196a1.695 1.695 0 0 0-.698.538l-2.051-.367.517-5.753h6.669v1.886h-4.767l-.283 2.732h.064c.192-.27.481-.493.869-.671.387-.178.82-.266 1.299-.266.657 0 1.243.154 1.758.463.515.309.922.733 1.22 1.273.298.536.446 1.154.442 1.854.004.735-.167 1.388-.511 1.96a3.609 3.609 0 0 1-1.433 1.342c-.611.324-1.321.485-2.131.485Zm9.716 0c-.795 0-1.504-.138-2.125-.411-.618-.277-1.107-.657-1.465-1.14a2.869 2.869 0 0 1-.549-1.683h2.323c.014.266.101.5.261.703.163.199.38.353.649.463.27.11.574.166.911.166.352 0 .663-.063.932-.187.27-.124.482-.296.634-.517a1.3 1.3 0 0 0 .229-.761c0-.291-.081-.549-.245-.773a1.56 1.56 0 0 0-.692-.532c-.298-.128-.654-.192-1.065-.192H179.2v-1.694h1.018c.348 0 .655-.06.921-.181.27-.12.479-.288.629-.5.149-.218.223-.47.223-.757 0-.274-.065-.513-.197-.72a1.303 1.303 0 0 0-.543-.49 1.768 1.768 0 0 0-.81-.175 2.11 2.11 0 0 0-.857.17 1.5 1.5 0 0 0-.624.474 1.251 1.251 0 0 0-.25.725h-2.21c.01-.629.189-1.183.538-1.662.348-.48.816-.854 1.406-1.124.593-.273 1.262-.41 2.008-.41.753 0 1.412.137 1.976.41.565.273 1.003.643 1.316 1.108.316.462.472.98.469 1.555.003.611-.187 1.12-.57 1.529-.38.408-.876.668-1.487.778v.085c.803.103 1.414.382 1.833.836.422.451.632 1.016.628 1.694a2.654 2.654 0 0 1-.538 1.657c-.358.483-.854.863-1.486 1.14-.632.277-1.356.415-2.173.415ZM74.55 53.485v8.727h-1.057v-7.62h-.051l-2.13 1.415v-1.073l2.18-1.45h1.058Zm2.51 8.727v-.767l2.88-3.154c.338-.369.617-.69.836-.963a3.58 3.58 0 0 0 .485-.775c.108-.244.162-.5.162-.767a1.42 1.42 0 0 0-.221-.797 1.438 1.438 0 0 0-.597-.52 1.935 1.935 0 0 0-.852-.183c-.335 0-.628.07-.878.209a1.437 1.437 0 0 0-.575.575c-.134.247-.2.537-.2.87h-1.006c0-.512.118-.961.353-1.347.236-.387.557-.688.963-.904.41-.216.868-.324 1.377-.324.511 0 .964.108 1.36.324.394.216.704.507.928.874.225.366.337.774.337 1.223 0 .32-.058.635-.175.941-.113.305-.312.644-.596 1.019a18.17 18.17 0 0 1-1.172 1.364l-1.96 2.096v.068h4.056v.938H77.06Zm12.396-1.568-4.807-4.807.648-.648 4.807 4.807-.648.648Zm-4.16 0-.647-.648 4.807-4.807.648.648-4.807 4.807Zm9.667 1.687c-.5 0-.95-.1-1.351-.298a2.509 2.509 0 0 1-.963-.818 2.229 2.229 0 0 1-.397-1.185h1.023c.04.395.219.722.537.98a1.79 1.79 0 0 0 1.15.384c.359 0 .677-.084.955-.252a1.76 1.76 0 0 0 .66-.69 2.05 2.05 0 0 0 .244-1.001c0-.381-.084-.72-.252-1.019a1.844 1.844 0 0 0-.682-.712 1.927 1.927 0 0 0-.993-.264 2.73 2.73 0 0 0-.822.124 2.285 2.285 0 0 0-.695.32l-.988-.12.528-4.295h4.534v.937h-3.647l-.307 2.574h.05a2.3 2.3 0 0 1 .674-.354c.27-.093.551-.14.844-.14a2.678 2.678 0 0 1 2.416 1.423c.242.44.362.943.362 1.509 0 .556-.125 1.053-.375 1.491a2.742 2.742 0 0 1-1.022 1.031 2.92 2.92 0 0 1-1.483.375Zm4.948-4.483c0-1.074.139-2.06.418-2.961a9.23 9.23 0 0 1 1.202-2.493h.886a5.469 5.469 0 0 0-.575 1.04 10.09 10.09 0 0 0-.465 1.35 12.81 12.81 0 0 0-.315 1.517 11.027 11.027 0 0 0-.111 1.547c0 .676.065 1.363.196 2.059.131.696.307 1.342.528 1.938.222.597.469 1.083.742 1.458h-.886a9.242 9.242 0 0 1-1.202-2.489c-.279-.903-.418-1.892-.418-2.966Zm6.871 4.483a3.264 3.264 0 0 1-1.074-.204 2.568 2.568 0 0 1-.98-.66c-.296-.313-.533-.735-.712-1.266-.179-.535-.268-1.205-.268-2.012 0-.773.072-1.457.217-2.054.145-.6.355-1.103.631-1.513.275-.411.607-.724.997-.937.392-.213.833-.32 1.325-.32.489 0 .923.098 1.304.294.383.194.696.463.937.81.242.347.398.746.469 1.197h-1.04a1.926 1.926 0 0 0-.562-.975c-.278-.259-.648-.388-1.108-.388-.676 0-1.209.294-1.598.882-.386.588-.581 1.413-.584 2.476h.068a2.557 2.557 0 0 1 2.148-1.16c.5 0 .957.126 1.372.376.415.247.747.59.997 1.027.25.434.375.933.375 1.495 0 .54-.12 1.035-.362 1.483a2.758 2.758 0 0 1-1.018 1.066c-.435.261-.946.389-1.534.383Zm0-.937c.358 0 .679-.09.963-.269a1.92 1.92 0 0 0 .677-.72c.168-.301.252-.636.252-1.006 0-.36-.081-.688-.243-.984a1.855 1.855 0 0 0-.661-.712 1.745 1.745 0 0 0-.954-.264c-.27 0-.522.054-.755.162-.233.105-.437.25-.613.435-.173.184-.31.396-.409.635a1.89 1.89 0 0 0-.149.745 2.004 2.004 0 0 0 .916 1.7c.287.185.612.278.976.278Zm7.437.937c-.642 0-1.189-.175-1.641-.524-.452-.352-.797-.862-1.035-1.53-.239-.67-.358-1.48-.358-2.429 0-.943.119-1.748.358-2.416.241-.67.588-1.182 1.039-1.534.455-.355 1-.533 1.637-.533.636 0 1.18.178 1.632.533.454.352.801.864 1.04 1.534.241.668.362 1.473.362 2.416 0 .95-.119 1.759-.358 2.43-.239.667-.584 1.177-1.036 1.53-.451.349-.998.523-1.64.523Zm0-.937c.636 0 1.13-.307 1.483-.92.352-.614.528-1.49.528-2.626 0-.755-.081-1.399-.243-1.93-.159-.531-.389-.936-.69-1.215a1.524 1.524 0 0 0-1.078-.417c-.631 0-1.124.31-1.479.933-.355.62-.533 1.496-.533 2.63 0 .755.08 1.397.239 1.925.159.529.388.93.686 1.206.301.276.663.414 1.087.414Zm6.818-3.546c0 1.074-.141 2.063-.422 2.966-.278.9-.677 1.73-1.197 2.489h-.887c.205-.281.395-.628.571-1.04.179-.409.336-.858.469-1.346.134-.492.237-1 .311-1.522a10.662 10.662 0 0 0-.081-3.605 11.93 11.93 0 0 0-.528-1.939c-.222-.596-.469-1.082-.742-1.457h.887a9.13 9.13 0 0 1 1.197 2.493c.281.9.422 1.887.422 2.961Z" fill="#000"/><path stroke="#000" d="M225.613 269h230v140h-230z"/><path d="M42 41h594v-2H42v2Zm595 1v705h2V42h-2Zm-1 706H42v2h594v-2Zm-595-1V42h-2v705h2Zm1 1a1 1 0 0 1-1-1h-2a3 3 0 0 0 3 3v-2Zm595-1a1 1 0 0 1-1 1v2a3 3 0 0 0 3-3h-2Zm-1-706a1 1 0 0 1 1 1h2a3 3 0 0 0-3-3v2ZM42 39a3 3 0 0 0-3 3h2a1 1 0 0 1 1-1v-2Z" fill="#000" fill-opacity=".1"/></svg>